<mxfile host="app.diagrams.net" modified="2021-05-05T15:59:18.345Z" agent="5.0 (Windows NT 10.0; Win64; x64) AppleWebKit/537.36 (KHTML, like Gecko) Chrome/90.0.4430.93 Safari/537.36" etag="TIQA8Bvekc9zVp-43HqV" version="14.5.8" type="github" pages="4">
  <diagram id="cDPtDByhRCY-w8dU35fF" name="Диаграмму прецедентов">
    <mxGraphModel dx="2545" dy="2101" grid="1" gridSize="10" guides="1" tooltips="1" connect="1" arrows="1" fold="1" page="1" pageScale="1" pageWidth="827" pageHeight="1169" math="0" shadow="0">
      <root>
        <mxCell id="0" />
        <mxCell id="1" parent="0" />
        <mxCell id="mWeejI7cPnejFzfpicmv-2" value="Клиент" style="shape=umlActor;verticalLabelPosition=bottom;verticalAlign=top;html=1;outlineConnect=0;" vertex="1" parent="1">
          <mxGeometry x="-60" y="400" width="30" height="60" as="geometry" />
        </mxCell>
        <mxCell id="mWeejI7cPnejFzfpicmv-3" value="Команда разработчиков" style="shape=umlActor;verticalLabelPosition=bottom;verticalAlign=top;html=1;outlineConnect=0;" vertex="1" parent="1">
          <mxGeometry x="980" y="250" width="30" height="60" as="geometry" />
        </mxCell>
        <mxCell id="mWeejI7cPnejFzfpicmv-5" value="Тимлид" style="shape=umlActor;verticalLabelPosition=bottom;verticalAlign=top;html=1;outlineConnect=0;" vertex="1" parent="1">
          <mxGeometry x="910" y="-50" width="30" height="60" as="geometry" />
        </mxCell>
        <mxCell id="mWeejI7cPnejFzfpicmv-6" value="Менеджер" style="shape=umlActor;verticalLabelPosition=bottom;verticalAlign=top;html=1;outlineConnect=0;" vertex="1" parent="1">
          <mxGeometry x="45" y="-80" width="30" height="60" as="geometry" />
        </mxCell>
        <mxCell id="mWeejI7cPnejFzfpicmv-7" value="Бригада работников" style="shape=umlActor;verticalLabelPosition=bottom;verticalAlign=top;html=1;outlineConnect=0;" vertex="1" parent="1">
          <mxGeometry x="335" y="310" width="30" height="60" as="geometry" />
        </mxCell>
        <mxCell id="mWeejI7cPnejFzfpicmv-11" value="Совершить заказ" style="ellipse;whiteSpace=wrap;html=1;" vertex="1" parent="1">
          <mxGeometry x="-150" y="240" width="170" height="50" as="geometry" />
        </mxCell>
        <mxCell id="mWeejI7cPnejFzfpicmv-12" value="" style="endArrow=none;html=1;entryX=0.5;entryY=1;entryDx=0;entryDy=0;" edge="1" parent="1" source="mWeejI7cPnejFzfpicmv-2" target="mWeejI7cPnejFzfpicmv-11">
          <mxGeometry width="50" height="50" relative="1" as="geometry">
            <mxPoint x="270" y="200" as="sourcePoint" />
            <mxPoint x="320" y="150" as="targetPoint" />
          </mxGeometry>
        </mxCell>
        <mxCell id="mWeejI7cPnejFzfpicmv-14" value="Принять заказ и определить его тип" style="ellipse;whiteSpace=wrap;html=1;" vertex="1" parent="1">
          <mxGeometry x="185" y="-110" width="180" height="50" as="geometry" />
        </mxCell>
        <mxCell id="mWeejI7cPnejFzfpicmv-15" value="" style="endArrow=none;html=1;exitX=0;exitY=0.5;exitDx=0;exitDy=0;" edge="1" parent="1" source="mWeejI7cPnejFzfpicmv-14" target="mWeejI7cPnejFzfpicmv-6">
          <mxGeometry width="50" height="50" relative="1" as="geometry">
            <mxPoint x="160" y="185" as="sourcePoint" />
            <mxPoint x="210" y="135" as="targetPoint" />
          </mxGeometry>
        </mxCell>
        <mxCell id="mWeejI7cPnejFzfpicmv-16" value="Передать информацию бухгалтеру" style="ellipse;whiteSpace=wrap;html=1;" vertex="1" parent="1">
          <mxGeometry x="160" y="10" width="180" height="50" as="geometry" />
        </mxCell>
        <mxCell id="mWeejI7cPnejFzfpicmv-18" value="" style="endArrow=none;html=1;entryX=0;entryY=0.5;entryDx=0;entryDy=0;" edge="1" parent="1" source="mWeejI7cPnejFzfpicmv-6" target="mWeejI7cPnejFzfpicmv-16">
          <mxGeometry width="50" height="50" relative="1" as="geometry">
            <mxPoint x="340" y="115" as="sourcePoint" />
            <mxPoint x="390" y="65" as="targetPoint" />
          </mxGeometry>
        </mxCell>
        <mxCell id="mWeejI7cPnejFzfpicmv-19" value="Передать данные команде разработчиков" style="ellipse;whiteSpace=wrap;html=1;" vertex="1" parent="1">
          <mxGeometry x="540" y="-70" width="180" height="50" as="geometry" />
        </mxCell>
        <mxCell id="mWeejI7cPnejFzfpicmv-20" value="" style="endArrow=none;html=1;entryX=0;entryY=0.5;entryDx=0;entryDy=0;exitX=1;exitY=0.5;exitDx=0;exitDy=0;" edge="1" parent="1" source="mWeejI7cPnejFzfpicmv-14" target="mWeejI7cPnejFzfpicmv-19">
          <mxGeometry width="50" height="50" relative="1" as="geometry">
            <mxPoint x="110" y="355" as="sourcePoint" />
            <mxPoint x="200" y="355" as="targetPoint" />
          </mxGeometry>
        </mxCell>
        <mxCell id="mWeejI7cPnejFzfpicmv-21" value="" style="endArrow=none;html=1;exitX=1;exitY=0.5;exitDx=0;exitDy=0;" edge="1" parent="1" source="mWeejI7cPnejFzfpicmv-19" target="mWeejI7cPnejFzfpicmv-5">
          <mxGeometry width="50" height="50" relative="1" as="geometry">
            <mxPoint x="490" y="430" as="sourcePoint" />
            <mxPoint x="540" y="380" as="targetPoint" />
          </mxGeometry>
        </mxCell>
        <mxCell id="mWeejI7cPnejFzfpicmv-22" value="Рассчитать сроки выполнения" style="ellipse;whiteSpace=wrap;html=1;" vertex="1" parent="1">
          <mxGeometry x="650" y="105" width="180" height="50" as="geometry" />
        </mxCell>
        <mxCell id="mWeejI7cPnejFzfpicmv-23" value="Разделить разработку на определенные этапы" style="ellipse;whiteSpace=wrap;html=1;" vertex="1" parent="1">
          <mxGeometry x="835" y="110" width="180" height="50" as="geometry" />
        </mxCell>
        <mxCell id="mWeejI7cPnejFzfpicmv-24" value="Предоставить задание разработчикам и тестировщикам" style="ellipse;whiteSpace=wrap;html=1;" vertex="1" parent="1">
          <mxGeometry x="1040" y="110" width="210" height="50" as="geometry" />
        </mxCell>
        <mxCell id="mWeejI7cPnejFzfpicmv-25" value="Команда тестировщиков" style="shape=umlActor;verticalLabelPosition=bottom;verticalAlign=top;html=1;outlineConnect=0;" vertex="1" parent="1">
          <mxGeometry x="1150" y="235" width="30" height="60" as="geometry" />
        </mxCell>
        <mxCell id="mWeejI7cPnejFzfpicmv-26" value="" style="endArrow=none;html=1;entryX=0.5;entryY=0;entryDx=0;entryDy=0;" edge="1" parent="1" target="mWeejI7cPnejFzfpicmv-22">
          <mxGeometry width="50" height="50" relative="1" as="geometry">
            <mxPoint x="910" y="-10" as="sourcePoint" />
            <mxPoint x="776" y="230" as="targetPoint" />
          </mxGeometry>
        </mxCell>
        <mxCell id="mWeejI7cPnejFzfpicmv-27" value="" style="endArrow=none;html=1;entryX=0.5;entryY=0;entryDx=0;entryDy=0;" edge="1" parent="1" target="mWeejI7cPnejFzfpicmv-23">
          <mxGeometry width="50" height="50" relative="1" as="geometry">
            <mxPoint x="928" y="30" as="sourcePoint" />
            <mxPoint x="786.0000000000014" y="105" as="targetPoint" />
          </mxGeometry>
        </mxCell>
        <mxCell id="mWeejI7cPnejFzfpicmv-28" value="" style="endArrow=none;html=1;entryX=0.5;entryY=0;entryDx=0;entryDy=0;" edge="1" parent="1" source="mWeejI7cPnejFzfpicmv-5" target="mWeejI7cPnejFzfpicmv-24">
          <mxGeometry width="50" height="50" relative="1" as="geometry">
            <mxPoint x="756.0000000000002" y="160" as="sourcePoint" />
            <mxPoint x="796.0000000000014" y="115" as="targetPoint" />
          </mxGeometry>
        </mxCell>
        <mxCell id="mWeejI7cPnejFzfpicmv-29" value="Передать данные бригаде" style="ellipse;whiteSpace=wrap;html=1;" vertex="1" parent="1">
          <mxGeometry x="480" y="5" width="180" height="50" as="geometry" />
        </mxCell>
        <mxCell id="mWeejI7cPnejFzfpicmv-30" value="" style="endArrow=none;html=1;entryX=0;entryY=0.5;entryDx=0;entryDy=0;exitX=1;exitY=0.5;exitDx=0;exitDy=0;" edge="1" parent="1" target="mWeejI7cPnejFzfpicmv-29" source="mWeejI7cPnejFzfpicmv-14">
          <mxGeometry width="50" height="50" relative="1" as="geometry">
            <mxPoint x="330" y="320" as="sourcePoint" />
            <mxPoint x="200" y="477.5" as="targetPoint" />
          </mxGeometry>
        </mxCell>
        <mxCell id="mWeejI7cPnejFzfpicmv-31" value="Начальник бригады" style="shape=umlActor;verticalLabelPosition=bottom;verticalAlign=top;html=1;outlineConnect=0;" vertex="1" parent="1">
          <mxGeometry x="510" y="90" width="30" height="60" as="geometry" />
        </mxCell>
        <mxCell id="mWeejI7cPnejFzfpicmv-32" value="" style="endArrow=none;html=1;exitX=0.5;exitY=1;exitDx=0;exitDy=0;" edge="1" parent="1" source="mWeejI7cPnejFzfpicmv-29" target="mWeejI7cPnejFzfpicmv-31">
          <mxGeometry width="50" height="50" relative="1" as="geometry">
            <mxPoint x="570" y="355" as="sourcePoint" />
            <mxPoint x="660.0000000000002" y="256.42857142857133" as="targetPoint" />
          </mxGeometry>
        </mxCell>
        <mxCell id="mWeejI7cPnejFzfpicmv-33" value="Рассчитать сроки выполнения" style="ellipse;whiteSpace=wrap;html=1;" vertex="1" parent="1">
          <mxGeometry x="620" y="250" width="180" height="50" as="geometry" />
        </mxCell>
        <mxCell id="mWeejI7cPnejFzfpicmv-34" value="Подготовить необходимые материалы" style="ellipse;whiteSpace=wrap;html=1;" vertex="1" parent="1">
          <mxGeometry x="430" y="290" width="180" height="50" as="geometry" />
        </mxCell>
        <mxCell id="mWeejI7cPnejFzfpicmv-35" value="Подготовить бригаду к работе" style="ellipse;whiteSpace=wrap;html=1;" vertex="1" parent="1">
          <mxGeometry x="260" y="227.5" width="180" height="50" as="geometry" />
        </mxCell>
        <mxCell id="mWeejI7cPnejFzfpicmv-36" value="" style="endArrow=none;html=1;exitX=0.5;exitY=1;exitDx=0;exitDy=0;" edge="1" parent="1" source="mWeejI7cPnejFzfpicmv-24" target="mWeejI7cPnejFzfpicmv-3">
          <mxGeometry width="50" height="50" relative="1" as="geometry">
            <mxPoint x="950" y="340" as="sourcePoint" />
            <mxPoint x="1000" y="290" as="targetPoint" />
          </mxGeometry>
        </mxCell>
        <mxCell id="mWeejI7cPnejFzfpicmv-37" value="" style="endArrow=none;html=1;exitX=0.5;exitY=1;exitDx=0;exitDy=0;" edge="1" parent="1" source="mWeejI7cPnejFzfpicmv-24" target="mWeejI7cPnejFzfpicmv-25">
          <mxGeometry width="50" height="50" relative="1" as="geometry">
            <mxPoint x="950" y="340" as="sourcePoint" />
            <mxPoint x="1000" y="290" as="targetPoint" />
          </mxGeometry>
        </mxCell>
        <mxCell id="mWeejI7cPnejFzfpicmv-38" value="" style="endArrow=none;html=1;exitX=0.5;exitY=1;exitDx=0;exitDy=0;" edge="1" parent="1" source="mWeejI7cPnejFzfpicmv-35" target="mWeejI7cPnejFzfpicmv-7">
          <mxGeometry width="50" height="50" relative="1" as="geometry">
            <mxPoint x="880" y="335" as="sourcePoint" />
            <mxPoint x="930" y="285" as="targetPoint" />
          </mxGeometry>
        </mxCell>
        <mxCell id="mWeejI7cPnejFzfpicmv-39" value="" style="endArrow=none;html=1;entryX=0.5;entryY=0;entryDx=0;entryDy=0;" edge="1" parent="1" source="mWeejI7cPnejFzfpicmv-31" target="mWeejI7cPnejFzfpicmv-33">
          <mxGeometry width="50" height="50" relative="1" as="geometry">
            <mxPoint x="640" y="265" as="sourcePoint" />
            <mxPoint x="690" y="235" as="targetPoint" />
          </mxGeometry>
        </mxCell>
        <mxCell id="mWeejI7cPnejFzfpicmv-40" value="" style="endArrow=none;html=1;entryX=0.5;entryY=0;entryDx=0;entryDy=0;" edge="1" parent="1" target="mWeejI7cPnejFzfpicmv-34">
          <mxGeometry width="50" height="50" relative="1" as="geometry">
            <mxPoint x="520" y="180" as="sourcePoint" />
            <mxPoint x="710" y="180" as="targetPoint" />
          </mxGeometry>
        </mxCell>
        <mxCell id="mWeejI7cPnejFzfpicmv-41" value="" style="endArrow=none;html=1;entryX=0.5;entryY=0;entryDx=0;entryDy=0;" edge="1" parent="1" source="mWeejI7cPnejFzfpicmv-31" target="mWeejI7cPnejFzfpicmv-35">
          <mxGeometry width="50" height="50" relative="1" as="geometry">
            <mxPoint x="660.0000000000002" y="285" as="sourcePoint" />
            <mxPoint x="710" y="255" as="targetPoint" />
          </mxGeometry>
        </mxCell>
        <mxCell id="mWeejI7cPnejFzfpicmv-44" value="" style="endArrow=none;html=1;entryX=0.5;entryY=0;entryDx=0;entryDy=0;" edge="1" parent="1" source="mWeejI7cPnejFzfpicmv-6" target="mWeejI7cPnejFzfpicmv-11">
          <mxGeometry width="50" height="50" relative="1" as="geometry">
            <mxPoint x="130" y="90" as="sourcePoint" />
            <mxPoint x="210" y="180" as="targetPoint" />
          </mxGeometry>
        </mxCell>
        <mxCell id="mWeejI7cPnejFzfpicmv-45" value="Оплатить заказ" style="ellipse;whiteSpace=wrap;html=1;" vertex="1" parent="1">
          <mxGeometry x="45" y="240" width="180" height="50" as="geometry" />
        </mxCell>
        <mxCell id="mWeejI7cPnejFzfpicmv-46" value="" style="endArrow=none;html=1;entryX=0.5;entryY=1;entryDx=0;entryDy=0;" edge="1" parent="1" source="mWeejI7cPnejFzfpicmv-2" target="mWeejI7cPnejFzfpicmv-45">
          <mxGeometry width="50" height="50" relative="1" as="geometry">
            <mxPoint x="145" y="240" as="sourcePoint" />
            <mxPoint x="195" y="190" as="targetPoint" />
          </mxGeometry>
        </mxCell>
        <mxCell id="mWeejI7cPnejFzfpicmv-47" value="" style="endArrow=none;html=1;exitX=0.5;exitY=0;exitDx=0;exitDy=0;entryX=0.5;entryY=1;entryDx=0;entryDy=0;" edge="1" parent="1" source="mWeejI7cPnejFzfpicmv-45" target="mWeejI7cPnejFzfpicmv-68">
          <mxGeometry width="50" height="50" relative="1" as="geometry">
            <mxPoint x="420" y="180" as="sourcePoint" />
            <mxPoint x="200" y="190" as="targetPoint" />
          </mxGeometry>
        </mxCell>
        <mxCell id="mWeejI7cPnejFzfpicmv-48" value="Разработать продукт" style="ellipse;whiteSpace=wrap;html=1;" vertex="1" parent="1">
          <mxGeometry x="720" y="350" width="180" height="50" as="geometry" />
        </mxCell>
        <mxCell id="mWeejI7cPnejFzfpicmv-49" value="Протестировать продукт" style="ellipse;whiteSpace=wrap;html=1;" vertex="1" parent="1">
          <mxGeometry x="930" y="380" width="180" height="50" as="geometry" />
        </mxCell>
        <mxCell id="mWeejI7cPnejFzfpicmv-53" value="" style="endArrow=none;html=1;exitX=0.5;exitY=0;exitDx=0;exitDy=0;" edge="1" parent="1" source="mWeejI7cPnejFzfpicmv-48">
          <mxGeometry width="50" height="50" relative="1" as="geometry">
            <mxPoint x="860" y="390" as="sourcePoint" />
            <mxPoint x="990" y="330" as="targetPoint" />
          </mxGeometry>
        </mxCell>
        <mxCell id="mWeejI7cPnejFzfpicmv-54" value="" style="endArrow=none;html=1;exitX=0.5;exitY=0;exitDx=0;exitDy=0;" edge="1" parent="1" source="mWeejI7cPnejFzfpicmv-49">
          <mxGeometry width="50" height="50" relative="1" as="geometry">
            <mxPoint x="1195" y="392.5" as="sourcePoint" />
            <mxPoint x="1160" y="320" as="targetPoint" />
          </mxGeometry>
        </mxCell>
        <mxCell id="mWeejI7cPnejFzfpicmv-55" value="Готовый продукт" style="ellipse;whiteSpace=wrap;html=1;" vertex="1" parent="1">
          <mxGeometry x="550" y="490" width="180" height="50" as="geometry" />
        </mxCell>
        <mxCell id="mWeejI7cPnejFzfpicmv-56" value="" style="endArrow=none;html=1;entryX=0.5;entryY=1;entryDx=0;entryDy=0;exitX=0.5;exitY=0;exitDx=0;exitDy=0;" edge="1" parent="1" source="mWeejI7cPnejFzfpicmv-55" target="mWeejI7cPnejFzfpicmv-48">
          <mxGeometry width="50" height="50" relative="1" as="geometry">
            <mxPoint x="850" y="460" as="sourcePoint" />
            <mxPoint x="900" y="410" as="targetPoint" />
          </mxGeometry>
        </mxCell>
        <mxCell id="mWeejI7cPnejFzfpicmv-57" value="" style="endArrow=none;html=1;entryX=0.5;entryY=1;entryDx=0;entryDy=0;exitX=0.5;exitY=0;exitDx=0;exitDy=0;" edge="1" parent="1" source="mWeejI7cPnejFzfpicmv-55" target="mWeejI7cPnejFzfpicmv-49">
          <mxGeometry width="50" height="50" relative="1" as="geometry">
            <mxPoint x="850" y="500" as="sourcePoint" />
            <mxPoint x="1130" y="460" as="targetPoint" />
          </mxGeometry>
        </mxCell>
        <mxCell id="mWeejI7cPnejFzfpicmv-58" value="Прием готового продукта или работы" style="ellipse;whiteSpace=wrap;html=1;" vertex="1" parent="1">
          <mxGeometry x="80" y="490" width="180" height="50" as="geometry" />
        </mxCell>
        <mxCell id="mWeejI7cPnejFzfpicmv-60" value="Прокладка компьютерных сетей" style="ellipse;whiteSpace=wrap;html=1;" vertex="1" parent="1">
          <mxGeometry x="324" y="420" width="180" height="50" as="geometry" />
        </mxCell>
        <mxCell id="mWeejI7cPnejFzfpicmv-61" value="" style="endArrow=none;html=1;exitX=0.5;exitY=0;exitDx=0;exitDy=0;" edge="1" parent="1" source="mWeejI7cPnejFzfpicmv-60">
          <mxGeometry width="50" height="50" relative="1" as="geometry">
            <mxPoint x="530" y="460" as="sourcePoint" />
            <mxPoint x="350" y="390" as="targetPoint" />
          </mxGeometry>
        </mxCell>
        <mxCell id="mWeejI7cPnejFzfpicmv-62" value="" style="endArrow=none;html=1;entryX=0;entryY=0.5;entryDx=0;entryDy=0;exitX=1;exitY=0.5;exitDx=0;exitDy=0;" edge="1" parent="1" source="mWeejI7cPnejFzfpicmv-58" target="mWeejI7cPnejFzfpicmv-55">
          <mxGeometry width="50" height="50" relative="1" as="geometry">
            <mxPoint x="490" y="490" as="sourcePoint" />
            <mxPoint x="540" y="440" as="targetPoint" />
          </mxGeometry>
        </mxCell>
        <mxCell id="mWeejI7cPnejFzfpicmv-63" value="" style="endArrow=none;html=1;exitX=1;exitY=0.5;exitDx=0;exitDy=0;entryX=0.5;entryY=1;entryDx=0;entryDy=0;" edge="1" parent="1" source="mWeejI7cPnejFzfpicmv-58" target="mWeejI7cPnejFzfpicmv-60">
          <mxGeometry width="50" height="50" relative="1" as="geometry">
            <mxPoint x="490" y="490" as="sourcePoint" />
            <mxPoint x="540" y="440" as="targetPoint" />
          </mxGeometry>
        </mxCell>
        <mxCell id="mWeejI7cPnejFzfpicmv-64" value="" style="endArrow=none;html=1;entryX=0;entryY=0.5;entryDx=0;entryDy=0;" edge="1" parent="1" source="mWeejI7cPnejFzfpicmv-2" target="mWeejI7cPnejFzfpicmv-58">
          <mxGeometry width="50" height="50" relative="1" as="geometry">
            <mxPoint x="400" y="480" as="sourcePoint" />
            <mxPoint x="450" y="430" as="targetPoint" />
          </mxGeometry>
        </mxCell>
        <mxCell id="mWeejI7cPnejFzfpicmv-67" value="Бухгалтер" style="shape=umlActor;verticalLabelPosition=bottom;verticalAlign=top;html=1;outlineConnect=0;" vertex="1" parent="1">
          <mxGeometry x="340" y="70" width="30" height="60" as="geometry" />
        </mxCell>
        <mxCell id="mWeejI7cPnejFzfpicmv-68" value="Рассчитать стоимость" style="ellipse;whiteSpace=wrap;html=1;" vertex="1" parent="1">
          <mxGeometry x="120" y="140" width="180" height="50" as="geometry" />
        </mxCell>
        <mxCell id="mWeejI7cPnejFzfpicmv-69" value="" style="endArrow=none;html=1;entryX=0.5;entryY=1;entryDx=0;entryDy=0;" edge="1" parent="1" source="mWeejI7cPnejFzfpicmv-67" target="mWeejI7cPnejFzfpicmv-16">
          <mxGeometry width="50" height="50" relative="1" as="geometry">
            <mxPoint x="230" y="220" as="sourcePoint" />
            <mxPoint x="280" y="170" as="targetPoint" />
          </mxGeometry>
        </mxCell>
        <mxCell id="mWeejI7cPnejFzfpicmv-70" value="" style="endArrow=none;html=1;entryX=0.5;entryY=0;entryDx=0;entryDy=0;" edge="1" parent="1" target="mWeejI7cPnejFzfpicmv-68">
          <mxGeometry width="50" height="50" relative="1" as="geometry">
            <mxPoint x="340" y="104" as="sourcePoint" />
            <mxPoint x="260" y="70" as="targetPoint" />
          </mxGeometry>
        </mxCell>
        <mxCell id="gcwwTBfVcnavN-COzoTb-1" value="" style="endArrow=none;html=1;entryX=0;entryY=0.5;entryDx=0;entryDy=0;exitX=1;exitY=0.5;exitDx=0;exitDy=0;" edge="1" parent="1" source="mWeejI7cPnejFzfpicmv-48" target="mWeejI7cPnejFzfpicmv-49">
          <mxGeometry width="50" height="50" relative="1" as="geometry">
            <mxPoint x="850" y="310" as="sourcePoint" />
            <mxPoint x="900" y="270" as="targetPoint" />
          </mxGeometry>
        </mxCell>
      </root>
    </mxGraphModel>
  </diagram>
  <diagram id="36L-_eIJ4gIkrSuLHeAF" name="Диаграмму деятельности">
    <mxGraphModel dx="2062" dy="1118" grid="1" gridSize="10" guides="1" tooltips="1" connect="1" arrows="1" fold="1" page="1" pageScale="1" pageWidth="827" pageHeight="1169" math="0" shadow="0">
      <root>
        <mxCell id="uUX3ez6QMEUYQmT7d_kK-0" />
        <mxCell id="uUX3ez6QMEUYQmT7d_kK-1" parent="uUX3ez6QMEUYQmT7d_kK-0" />
        <mxCell id="tRWD3VD6CDFU8oL8m7PO-0" value="&lt;font style=&quot;font-size: 16px&quot;&gt;Клиент&lt;/font&gt;" style="text;html=1;strokeColor=none;fillColor=none;align=center;verticalAlign=middle;whiteSpace=wrap;rounded=0;" vertex="1" parent="uUX3ez6QMEUYQmT7d_kK-1">
          <mxGeometry x="110" y="50" width="60" height="20" as="geometry" />
        </mxCell>
        <mxCell id="GsiNrgmaZU6TqICUGK3r-0" value="&lt;font style=&quot;font-size: 9px&quot;&gt;Начало&lt;/font&gt;" style="text;html=1;strokeColor=none;fillColor=none;align=center;verticalAlign=middle;whiteSpace=wrap;rounded=0;" vertex="1" parent="uUX3ez6QMEUYQmT7d_kK-1">
          <mxGeometry x="100" y="90" width="30" height="5" as="geometry" />
        </mxCell>
        <mxCell id="NVR5XgwRJ3cocbk5u-yY-0" style="edgeStyle=orthogonalEdgeStyle;rounded=0;orthogonalLoop=1;jettySize=auto;html=1;entryX=0.5;entryY=0;entryDx=0;entryDy=0;" edge="1" parent="uUX3ez6QMEUYQmT7d_kK-1" source="GsiNrgmaZU6TqICUGK3r-1" target="GsiNrgmaZU6TqICUGK3r-3">
          <mxGeometry relative="1" as="geometry">
            <mxPoint x="140" y="120" as="targetPoint" />
          </mxGeometry>
        </mxCell>
        <mxCell id="GsiNrgmaZU6TqICUGK3r-1" value="" style="ellipse;whiteSpace=wrap;html=1;aspect=fixed;fillColor=#000033;" vertex="1" parent="uUX3ez6QMEUYQmT7d_kK-1">
          <mxGeometry x="135" y="90" width="10" height="10" as="geometry" />
        </mxCell>
        <mxCell id="NVR5XgwRJ3cocbk5u-yY-4" style="edgeStyle=orthogonalEdgeStyle;rounded=0;orthogonalLoop=1;jettySize=auto;html=1;entryX=0;entryY=0.5;entryDx=0;entryDy=0;" edge="1" parent="uUX3ez6QMEUYQmT7d_kK-1" source="GsiNrgmaZU6TqICUGK3r-3" target="NVR5XgwRJ3cocbk5u-yY-3">
          <mxGeometry relative="1" as="geometry" />
        </mxCell>
        <mxCell id="GsiNrgmaZU6TqICUGK3r-3" value="Совершить заказ" style="rounded=1;whiteSpace=wrap;html=1;fillColor=#FFFFFF;" vertex="1" parent="uUX3ez6QMEUYQmT7d_kK-1">
          <mxGeometry x="80" y="130" width="120" height="20" as="geometry" />
        </mxCell>
        <mxCell id="NVR5XgwRJ3cocbk5u-yY-1" value="&lt;font style=&quot;font-size: 16px&quot;&gt;Менеджер&lt;/font&gt;" style="text;html=1;strokeColor=none;fillColor=none;align=center;verticalAlign=middle;whiteSpace=wrap;rounded=0;" vertex="1" parent="uUX3ez6QMEUYQmT7d_kK-1">
          <mxGeometry x="290" y="50" width="80" height="20" as="geometry" />
        </mxCell>
        <mxCell id="NVR5XgwRJ3cocbk5u-yY-2" value="" style="endArrow=none;dashed=1;html=1;dashPattern=1 3;strokeWidth=2;opacity=40;" edge="1" parent="uUX3ez6QMEUYQmT7d_kK-1">
          <mxGeometry width="50" height="50" relative="1" as="geometry">
            <mxPoint x="220" y="640" as="sourcePoint" />
            <mxPoint x="220" y="60" as="targetPoint" />
          </mxGeometry>
        </mxCell>
        <mxCell id="NVR5XgwRJ3cocbk5u-yY-3" value="Принять заказ и определить его тип" style="rounded=1;whiteSpace=wrap;html=1;fillColor=#FFFFFF;" vertex="1" parent="uUX3ez6QMEUYQmT7d_kK-1">
          <mxGeometry x="240" y="125" width="130" height="30" as="geometry" />
        </mxCell>
        <mxCell id="NVR5XgwRJ3cocbk5u-yY-5" value="" style="endArrow=none;dashed=1;html=1;dashPattern=1 3;strokeWidth=2;opacity=40;" edge="1" parent="uUX3ez6QMEUYQmT7d_kK-1">
          <mxGeometry width="50" height="50" relative="1" as="geometry">
            <mxPoint x="440" y="640" as="sourcePoint" />
            <mxPoint x="440" y="60" as="targetPoint" />
          </mxGeometry>
        </mxCell>
        <mxCell id="NVR5XgwRJ3cocbk5u-yY-6" value="&lt;font style=&quot;font-size: 16px&quot;&gt;Бухгалтер&lt;/font&gt;" style="text;html=1;strokeColor=none;fillColor=none;align=center;verticalAlign=middle;whiteSpace=wrap;rounded=0;" vertex="1" parent="uUX3ez6QMEUYQmT7d_kK-1">
          <mxGeometry x="480" y="50" width="80" height="20" as="geometry" />
        </mxCell>
        <mxCell id="NVR5XgwRJ3cocbk5u-yY-7" value="" style="endArrow=none;dashed=1;html=1;dashPattern=1 3;strokeWidth=2;opacity=40;" edge="1" parent="uUX3ez6QMEUYQmT7d_kK-1">
          <mxGeometry width="50" height="50" relative="1" as="geometry">
            <mxPoint x="600" y="640" as="sourcePoint" />
            <mxPoint x="600" y="60" as="targetPoint" />
          </mxGeometry>
        </mxCell>
        <mxCell id="scAuZytiZJyH_DZWsamR-47" style="edgeStyle=orthogonalEdgeStyle;rounded=0;orthogonalLoop=1;jettySize=auto;html=1;entryX=0;entryY=0.5;entryDx=0;entryDy=0;" edge="1" parent="uUX3ez6QMEUYQmT7d_kK-1" source="WBPOVWDveayBn8FRyzsH-0" target="mJKW6UsB958CqCDHoNlt-0">
          <mxGeometry relative="1" as="geometry">
            <mxPoint x="1000" y="205" as="targetPoint" />
          </mxGeometry>
        </mxCell>
        <mxCell id="WBPOVWDveayBn8FRyzsH-0" value="Передать информацию Тимлиду" style="rounded=1;whiteSpace=wrap;html=1;fillColor=#FFFFFF;" vertex="1" parent="uUX3ez6QMEUYQmT7d_kK-1">
          <mxGeometry x="280" y="190" width="130" height="30" as="geometry" />
        </mxCell>
        <mxCell id="scAuZytiZJyH_DZWsamR-48" style="edgeStyle=orthogonalEdgeStyle;rounded=0;orthogonalLoop=1;jettySize=auto;html=1;" edge="1" parent="uUX3ez6QMEUYQmT7d_kK-1" source="WBPOVWDveayBn8FRyzsH-1">
          <mxGeometry relative="1" as="geometry">
            <mxPoint x="630" y="260" as="targetPoint" />
          </mxGeometry>
        </mxCell>
        <mxCell id="WBPOVWDveayBn8FRyzsH-1" value="Передать информацию Начальнику бригады" style="rounded=1;whiteSpace=wrap;html=1;fillColor=#FFFFFF;" vertex="1" parent="uUX3ez6QMEUYQmT7d_kK-1">
          <mxGeometry x="280" y="240" width="140" height="40" as="geometry" />
        </mxCell>
        <mxCell id="scAuZytiZJyH_DZWsamR-18" style="edgeStyle=orthogonalEdgeStyle;rounded=0;orthogonalLoop=1;jettySize=auto;html=1;entryX=0;entryY=0.5;entryDx=0;entryDy=0;" edge="1" parent="uUX3ez6QMEUYQmT7d_kK-1" source="scAuZytiZJyH_DZWsamR-0" target="scAuZytiZJyH_DZWsamR-17">
          <mxGeometry relative="1" as="geometry" />
        </mxCell>
        <mxCell id="scAuZytiZJyH_DZWsamR-0" value="Создать заказ и передать информацию Бухгалтеру" style="rounded=1;whiteSpace=wrap;html=1;fillColor=#FFFFFF;" vertex="1" parent="uUX3ez6QMEUYQmT7d_kK-1">
          <mxGeometry x="280" y="300" width="150" height="30" as="geometry" />
        </mxCell>
        <mxCell id="scAuZytiZJyH_DZWsamR-2" value="" style="endArrow=none;html=1;entryX=0.5;entryY=1;entryDx=0;entryDy=0;" edge="1" parent="uUX3ez6QMEUYQmT7d_kK-1" target="NVR5XgwRJ3cocbk5u-yY-3">
          <mxGeometry width="50" height="50" relative="1" as="geometry">
            <mxPoint x="305" y="170" as="sourcePoint" />
            <mxPoint x="460" y="260" as="targetPoint" />
          </mxGeometry>
        </mxCell>
        <mxCell id="scAuZytiZJyH_DZWsamR-3" value="" style="endArrow=none;html=1;" edge="1" parent="uUX3ez6QMEUYQmT7d_kK-1">
          <mxGeometry width="50" height="50" relative="1" as="geometry">
            <mxPoint x="250" y="170" as="sourcePoint" />
            <mxPoint x="305" y="170" as="targetPoint" />
          </mxGeometry>
        </mxCell>
        <mxCell id="scAuZytiZJyH_DZWsamR-4" value="" style="endArrow=none;html=1;" edge="1" parent="uUX3ez6QMEUYQmT7d_kK-1">
          <mxGeometry width="50" height="50" relative="1" as="geometry">
            <mxPoint x="250" y="315" as="sourcePoint" />
            <mxPoint x="250" y="170" as="targetPoint" />
          </mxGeometry>
        </mxCell>
        <mxCell id="scAuZytiZJyH_DZWsamR-5" value="" style="endArrow=classic;html=1;entryX=0;entryY=0.5;entryDx=0;entryDy=0;" edge="1" parent="uUX3ez6QMEUYQmT7d_kK-1" target="WBPOVWDveayBn8FRyzsH-0">
          <mxGeometry width="50" height="50" relative="1" as="geometry">
            <mxPoint x="250" y="205" as="sourcePoint" />
            <mxPoint x="300" y="190" as="targetPoint" />
          </mxGeometry>
        </mxCell>
        <mxCell id="scAuZytiZJyH_DZWsamR-6" value="" style="endArrow=classic;html=1;entryX=0;entryY=0.5;entryDx=0;entryDy=0;" edge="1" parent="uUX3ez6QMEUYQmT7d_kK-1">
          <mxGeometry width="50" height="50" relative="1" as="geometry">
            <mxPoint x="250" y="259.83" as="sourcePoint" />
            <mxPoint x="280" y="259.83" as="targetPoint" />
          </mxGeometry>
        </mxCell>
        <mxCell id="scAuZytiZJyH_DZWsamR-7" value="" style="endArrow=classic;html=1;entryX=0;entryY=0.5;entryDx=0;entryDy=0;" edge="1" parent="uUX3ez6QMEUYQmT7d_kK-1">
          <mxGeometry width="50" height="50" relative="1" as="geometry">
            <mxPoint x="250" y="314.83" as="sourcePoint" />
            <mxPoint x="280" y="314.83" as="targetPoint" />
          </mxGeometry>
        </mxCell>
        <mxCell id="scAuZytiZJyH_DZWsamR-8" value="&lt;font style=&quot;font-size: 16px&quot;&gt;Начальник Бригады&lt;/font&gt;" style="text;html=1;strokeColor=none;fillColor=none;align=center;verticalAlign=middle;whiteSpace=wrap;rounded=0;" vertex="1" parent="uUX3ez6QMEUYQmT7d_kK-1">
          <mxGeometry x="620" y="50" width="160" height="20" as="geometry" />
        </mxCell>
        <mxCell id="scAuZytiZJyH_DZWsamR-9" value="&lt;font style=&quot;font-size: 16px&quot;&gt;Бригада&lt;/font&gt;" style="text;html=1;strokeColor=none;fillColor=none;align=center;verticalAlign=middle;whiteSpace=wrap;rounded=0;" vertex="1" parent="uUX3ez6QMEUYQmT7d_kK-1">
          <mxGeometry x="850" y="50" width="80" height="20" as="geometry" />
        </mxCell>
        <mxCell id="scAuZytiZJyH_DZWsamR-10" value="&lt;font style=&quot;font-size: 16px&quot;&gt;Тимлид&lt;/font&gt;" style="text;html=1;strokeColor=none;fillColor=none;align=center;verticalAlign=middle;whiteSpace=wrap;rounded=0;" vertex="1" parent="uUX3ez6QMEUYQmT7d_kK-1">
          <mxGeometry x="1035" y="50" width="80" height="20" as="geometry" />
        </mxCell>
        <mxCell id="scAuZytiZJyH_DZWsamR-11" value="&lt;font style=&quot;font-size: 16px&quot;&gt;Разработчики&lt;/font&gt;" style="text;html=1;strokeColor=none;fillColor=none;align=center;verticalAlign=middle;whiteSpace=wrap;rounded=0;" vertex="1" parent="uUX3ez6QMEUYQmT7d_kK-1">
          <mxGeometry x="1241" y="50" width="110" height="20" as="geometry" />
        </mxCell>
        <mxCell id="scAuZytiZJyH_DZWsamR-12" value="&lt;font style=&quot;font-size: 16px&quot;&gt;Тестировщики&lt;/font&gt;" style="text;html=1;strokeColor=none;fillColor=none;align=center;verticalAlign=middle;whiteSpace=wrap;rounded=0;" vertex="1" parent="uUX3ez6QMEUYQmT7d_kK-1">
          <mxGeometry x="1460" y="50" width="110" height="20" as="geometry" />
        </mxCell>
        <mxCell id="scAuZytiZJyH_DZWsamR-13" value="" style="endArrow=none;dashed=1;html=1;dashPattern=1 3;strokeWidth=2;opacity=40;" edge="1" parent="uUX3ez6QMEUYQmT7d_kK-1">
          <mxGeometry width="50" height="50" relative="1" as="geometry">
            <mxPoint x="800" y="640" as="sourcePoint" />
            <mxPoint x="800.0000000000002" y="60" as="targetPoint" />
          </mxGeometry>
        </mxCell>
        <mxCell id="scAuZytiZJyH_DZWsamR-14" value="" style="endArrow=none;dashed=1;html=1;dashPattern=1 3;strokeWidth=2;opacity=40;" edge="1" parent="uUX3ez6QMEUYQmT7d_kK-1">
          <mxGeometry width="50" height="50" relative="1" as="geometry">
            <mxPoint x="980" y="640" as="sourcePoint" />
            <mxPoint x="980.0000000000002" y="60" as="targetPoint" />
          </mxGeometry>
        </mxCell>
        <mxCell id="scAuZytiZJyH_DZWsamR-15" value="" style="endArrow=none;dashed=1;html=1;dashPattern=1 3;strokeWidth=2;opacity=40;" edge="1" parent="uUX3ez6QMEUYQmT7d_kK-1">
          <mxGeometry width="50" height="50" relative="1" as="geometry">
            <mxPoint x="1190" y="640" as="sourcePoint" />
            <mxPoint x="1190.0000000000002" y="60" as="targetPoint" />
          </mxGeometry>
        </mxCell>
        <mxCell id="scAuZytiZJyH_DZWsamR-16" value="" style="endArrow=none;dashed=1;html=1;dashPattern=1 3;strokeWidth=2;opacity=40;" edge="1" parent="uUX3ez6QMEUYQmT7d_kK-1">
          <mxGeometry width="50" height="50" relative="1" as="geometry">
            <mxPoint x="1390" y="640" as="sourcePoint" />
            <mxPoint x="1390" y="60" as="targetPoint" />
          </mxGeometry>
        </mxCell>
        <mxCell id="scAuZytiZJyH_DZWsamR-17" value="Оформить счет" style="rounded=1;whiteSpace=wrap;html=1;fillColor=#FFFFFF;" vertex="1" parent="uUX3ez6QMEUYQmT7d_kK-1">
          <mxGeometry x="457.5" y="300" width="130" height="30" as="geometry" />
        </mxCell>
        <mxCell id="scAuZytiZJyH_DZWsamR-28" style="edgeStyle=orthogonalEdgeStyle;rounded=0;orthogonalLoop=1;jettySize=auto;html=1;entryX=0.5;entryY=0;entryDx=0;entryDy=0;" edge="1" parent="uUX3ez6QMEUYQmT7d_kK-1" source="scAuZytiZJyH_DZWsamR-19" target="scAuZytiZJyH_DZWsamR-26">
          <mxGeometry relative="1" as="geometry" />
        </mxCell>
        <mxCell id="scAuZytiZJyH_DZWsamR-19" value="Оплата счета" style="rounded=1;whiteSpace=wrap;html=1;fillColor=#FFFFFF;" vertex="1" parent="uUX3ez6QMEUYQmT7d_kK-1">
          <mxGeometry x="70" y="340" width="130" height="30" as="geometry" />
        </mxCell>
        <mxCell id="scAuZytiZJyH_DZWsamR-21" value="" style="endArrow=none;html=1;entryX=0.496;entryY=1.019;entryDx=0;entryDy=0;entryPerimeter=0;" edge="1" parent="uUX3ez6QMEUYQmT7d_kK-1" target="scAuZytiZJyH_DZWsamR-17">
          <mxGeometry width="50" height="50" relative="1" as="geometry">
            <mxPoint x="522" y="355" as="sourcePoint" />
            <mxPoint x="523" y="340" as="targetPoint" />
          </mxGeometry>
        </mxCell>
        <mxCell id="scAuZytiZJyH_DZWsamR-22" value="" style="endArrow=classic;html=1;entryX=1;entryY=0.5;entryDx=0;entryDy=0;" edge="1" parent="uUX3ez6QMEUYQmT7d_kK-1" target="scAuZytiZJyH_DZWsamR-19">
          <mxGeometry width="50" height="50" relative="1" as="geometry">
            <mxPoint x="522" y="355" as="sourcePoint" />
            <mxPoint x="420" y="340" as="targetPoint" />
          </mxGeometry>
        </mxCell>
        <mxCell id="scAuZytiZJyH_DZWsamR-24" value="В течении 3-х дней" style="shape=note;whiteSpace=wrap;html=1;backgroundOutline=1;darkOpacity=0.05;fillColor=#FFFFFF;size=7;" vertex="1" parent="uUX3ez6QMEUYQmT7d_kK-1">
          <mxGeometry x="70" y="300" width="130" height="20" as="geometry" />
        </mxCell>
        <mxCell id="scAuZytiZJyH_DZWsamR-25" value="" style="endArrow=none;dashed=1;html=1;dashPattern=1 3;strokeWidth=2;entryX=0.5;entryY=1;entryDx=0;entryDy=0;entryPerimeter=0;exitX=0.5;exitY=0;exitDx=0;exitDy=0;" edge="1" parent="uUX3ez6QMEUYQmT7d_kK-1" source="scAuZytiZJyH_DZWsamR-19" target="scAuZytiZJyH_DZWsamR-24">
          <mxGeometry width="50" height="50" relative="1" as="geometry">
            <mxPoint x="220" y="370" as="sourcePoint" />
            <mxPoint x="270" y="320" as="targetPoint" />
          </mxGeometry>
        </mxCell>
        <mxCell id="scAuZytiZJyH_DZWsamR-30" style="edgeStyle=orthogonalEdgeStyle;rounded=0;orthogonalLoop=1;jettySize=auto;html=1;entryX=0;entryY=0.5;entryDx=0;entryDy=0;" edge="1" parent="uUX3ez6QMEUYQmT7d_kK-1" source="scAuZytiZJyH_DZWsamR-26" target="scAuZytiZJyH_DZWsamR-29">
          <mxGeometry relative="1" as="geometry" />
        </mxCell>
        <mxCell id="scAuZytiZJyH_DZWsamR-32" style="edgeStyle=orthogonalEdgeStyle;rounded=0;orthogonalLoop=1;jettySize=auto;html=1;entryX=0;entryY=0.5;entryDx=0;entryDy=0;exitX=0.5;exitY=1;exitDx=0;exitDy=0;" edge="1" parent="uUX3ez6QMEUYQmT7d_kK-1" source="scAuZytiZJyH_DZWsamR-26" target="scAuZytiZJyH_DZWsamR-34">
          <mxGeometry relative="1" as="geometry">
            <mxPoint x="440" y="510" as="targetPoint" />
            <mxPoint x="135" y="500" as="sourcePoint" />
            <Array as="points">
              <mxPoint x="135" y="505" />
            </Array>
          </mxGeometry>
        </mxCell>
        <mxCell id="scAuZytiZJyH_DZWsamR-39" style="edgeStyle=orthogonalEdgeStyle;rounded=0;orthogonalLoop=1;jettySize=auto;html=1;entryX=0;entryY=0.5;entryDx=0;entryDy=0;" edge="1" parent="uUX3ez6QMEUYQmT7d_kK-1" source="scAuZytiZJyH_DZWsamR-26" target="scAuZytiZJyH_DZWsamR-36">
          <mxGeometry relative="1" as="geometry">
            <mxPoint x="75" y="570" as="targetPoint" />
            <Array as="points">
              <mxPoint x="80" y="460" />
              <mxPoint x="80" y="570" />
            </Array>
          </mxGeometry>
        </mxCell>
        <mxCell id="scAuZytiZJyH_DZWsamR-26" value="" style="rhombus;whiteSpace=wrap;html=1;fillColor=#FFFFFF;" vertex="1" parent="uUX3ez6QMEUYQmT7d_kK-1">
          <mxGeometry x="95" y="440" width="80" height="40" as="geometry" />
        </mxCell>
        <mxCell id="scAuZytiZJyH_DZWsamR-27" value="Счет оплачен" style="text;html=1;strokeColor=none;fillColor=none;align=center;verticalAlign=middle;whiteSpace=wrap;rounded=0;" vertex="1" parent="uUX3ez6QMEUYQmT7d_kK-1">
          <mxGeometry x="135" y="405" width="70" height="20" as="geometry" />
        </mxCell>
        <mxCell id="scAuZytiZJyH_DZWsamR-46" style="edgeStyle=orthogonalEdgeStyle;rounded=0;orthogonalLoop=1;jettySize=auto;html=1;entryX=0.5;entryY=1;entryDx=0;entryDy=0;" edge="1" parent="uUX3ez6QMEUYQmT7d_kK-1" source="scAuZytiZJyH_DZWsamR-29" target="scAuZytiZJyH_DZWsamR-45">
          <mxGeometry relative="1" as="geometry">
            <mxPoint x="480.0000000000002" y="410" as="targetPoint" />
            <Array as="points">
              <mxPoint x="522" y="425" />
              <mxPoint x="350" y="425" />
            </Array>
          </mxGeometry>
        </mxCell>
        <mxCell id="scAuZytiZJyH_DZWsamR-29" value="Предоставление информации об оплате" style="rounded=1;whiteSpace=wrap;html=1;fillColor=#FFFFFF;" vertex="1" parent="uUX3ez6QMEUYQmT7d_kK-1">
          <mxGeometry x="455" y="445" width="135" height="30" as="geometry" />
        </mxCell>
        <mxCell id="scAuZytiZJyH_DZWsamR-31" value="Оплачено в срок" style="text;html=1;strokeColor=none;fillColor=none;align=center;verticalAlign=middle;whiteSpace=wrap;rounded=0;" vertex="1" parent="uUX3ez6QMEUYQmT7d_kK-1">
          <mxGeometry x="255" y="440" width="100" height="20" as="geometry" />
        </mxCell>
        <mxCell id="scAuZytiZJyH_DZWsamR-38" style="edgeStyle=orthogonalEdgeStyle;rounded=0;orthogonalLoop=1;jettySize=auto;html=1;entryX=1;entryY=0.5;entryDx=0;entryDy=0;" edge="1" parent="uUX3ez6QMEUYQmT7d_kK-1" source="scAuZytiZJyH_DZWsamR-34" target="scAuZytiZJyH_DZWsamR-36">
          <mxGeometry relative="1" as="geometry">
            <mxPoint x="522.5" y="570" as="targetPoint" />
            <Array as="points">
              <mxPoint x="522" y="570" />
              <mxPoint x="400" y="570" />
            </Array>
          </mxGeometry>
        </mxCell>
        <mxCell id="scAuZytiZJyH_DZWsamR-34" value="Возврат денег" style="rounded=1;whiteSpace=wrap;html=1;fillColor=#FFFFFF;" vertex="1" parent="uUX3ez6QMEUYQmT7d_kK-1">
          <mxGeometry x="457.5" y="490" width="130" height="30" as="geometry" />
        </mxCell>
        <mxCell id="scAuZytiZJyH_DZWsamR-35" value="Оплачено позже" style="text;html=1;strokeColor=none;fillColor=none;align=center;verticalAlign=middle;whiteSpace=wrap;rounded=0;" vertex="1" parent="uUX3ez6QMEUYQmT7d_kK-1">
          <mxGeometry x="255" y="480" width="100" height="20" as="geometry" />
        </mxCell>
        <mxCell id="scAuZytiZJyH_DZWsamR-43" style="edgeStyle=orthogonalEdgeStyle;rounded=0;orthogonalLoop=1;jettySize=auto;html=1;entryX=0.5;entryY=0;entryDx=0;entryDy=0;" edge="1" parent="uUX3ez6QMEUYQmT7d_kK-1" source="scAuZytiZJyH_DZWsamR-36" target="scAuZytiZJyH_DZWsamR-42">
          <mxGeometry relative="1" as="geometry" />
        </mxCell>
        <mxCell id="scAuZytiZJyH_DZWsamR-36" value="Отмена заказа" style="rounded=1;whiteSpace=wrap;html=1;fillColor=#FFFFFF;" vertex="1" parent="uUX3ez6QMEUYQmT7d_kK-1">
          <mxGeometry x="265" y="555" width="130" height="30" as="geometry" />
        </mxCell>
        <mxCell id="scAuZytiZJyH_DZWsamR-40" value="Нет" style="text;html=1;strokeColor=none;fillColor=none;align=center;verticalAlign=middle;whiteSpace=wrap;rounded=0;" vertex="1" parent="uUX3ez6QMEUYQmT7d_kK-1">
          <mxGeometry x="75" y="445" width="20" height="10" as="geometry" />
        </mxCell>
        <mxCell id="scAuZytiZJyH_DZWsamR-42" value="" style="ellipse;whiteSpace=wrap;html=1;aspect=fixed;fillColor=#FFFFFF;perimeterSpacing=0;" vertex="1" parent="uUX3ez6QMEUYQmT7d_kK-1">
          <mxGeometry x="325" y="630" width="10" height="10" as="geometry" />
        </mxCell>
        <mxCell id="scAuZytiZJyH_DZWsamR-44" value="&lt;font style=&quot;font-size: 11px&quot;&gt;Конец&lt;/font&gt;" style="text;html=1;strokeColor=none;fillColor=none;align=center;verticalAlign=middle;whiteSpace=wrap;rounded=0;" vertex="1" parent="uUX3ez6QMEUYQmT7d_kK-1">
          <mxGeometry x="285" y="630" width="30" height="5" as="geometry" />
        </mxCell>
        <mxCell id="scAuZytiZJyH_DZWsamR-49" style="edgeStyle=orthogonalEdgeStyle;rounded=0;orthogonalLoop=1;jettySize=auto;html=1;" edge="1" parent="uUX3ez6QMEUYQmT7d_kK-1" source="scAuZytiZJyH_DZWsamR-45">
          <mxGeometry relative="1" as="geometry">
            <mxPoint x="610" y="260" as="targetPoint" />
            <Array as="points">
              <mxPoint x="610" y="390" />
              <mxPoint x="610" y="270" />
            </Array>
          </mxGeometry>
        </mxCell>
        <mxCell id="scAuZytiZJyH_DZWsamR-45" value="Формирование договора" style="rounded=1;whiteSpace=wrap;html=1;fillColor=#FFFFFF;" vertex="1" parent="uUX3ez6QMEUYQmT7d_kK-1">
          <mxGeometry x="285" y="375" width="130" height="30" as="geometry" />
        </mxCell>
        <mxCell id="scAuZytiZJyH_DZWsamR-50" value="" style="endArrow=classic;html=1;" edge="1" parent="uUX3ez6QMEUYQmT7d_kK-1">
          <mxGeometry width="50" height="50" relative="1" as="geometry">
            <mxPoint x="590" y="390" as="sourcePoint" />
            <mxPoint x="590" y="205" as="targetPoint" />
          </mxGeometry>
        </mxCell>
        <mxCell id="jWrvI7mB2OVFq6HZdIsJ-0" style="edgeStyle=orthogonalEdgeStyle;rounded=0;orthogonalLoop=1;jettySize=auto;html=1;entryX=0.5;entryY=0;entryDx=0;entryDy=0;" edge="1" parent="uUX3ez6QMEUYQmT7d_kK-1" source="yF5n_xg8RWIx10vudwGL-0" target="kBI4oj_cITZTRbM0QbDy-0">
          <mxGeometry relative="1" as="geometry" />
        </mxCell>
        <mxCell id="yF5n_xg8RWIx10vudwGL-0" value="&lt;span&gt;Подготовить необходимые материалы&lt;/span&gt;" style="rounded=1;whiteSpace=wrap;html=1;fillColor=#FFFFFF;" vertex="1" parent="uUX3ez6QMEUYQmT7d_kK-1">
          <mxGeometry x="630" y="245" width="150" height="30" as="geometry" />
        </mxCell>
        <mxCell id="jWrvI7mB2OVFq6HZdIsJ-2" style="edgeStyle=orthogonalEdgeStyle;rounded=0;orthogonalLoop=1;jettySize=auto;html=1;entryX=0.5;entryY=0;entryDx=0;entryDy=0;" edge="1" parent="uUX3ez6QMEUYQmT7d_kK-1" source="kBI4oj_cITZTRbM0QbDy-0" target="jWrvI7mB2OVFq6HZdIsJ-1">
          <mxGeometry relative="1" as="geometry" />
        </mxCell>
        <mxCell id="kBI4oj_cITZTRbM0QbDy-0" value="Рассчитать сроки выполнения" style="rounded=1;whiteSpace=wrap;html=1;fillColor=#FFFFFF;" vertex="1" parent="uUX3ez6QMEUYQmT7d_kK-1">
          <mxGeometry x="630" y="310" width="150" height="30" as="geometry" />
        </mxCell>
        <mxCell id="H99tdsUOtV-TQSB7iHhj-1" style="edgeStyle=orthogonalEdgeStyle;rounded=0;orthogonalLoop=1;jettySize=auto;html=1;entryX=0;entryY=0.5;entryDx=0;entryDy=0;" edge="1" parent="uUX3ez6QMEUYQmT7d_kK-1" source="jWrvI7mB2OVFq6HZdIsJ-1" target="H99tdsUOtV-TQSB7iHhj-0">
          <mxGeometry relative="1" as="geometry" />
        </mxCell>
        <mxCell id="jWrvI7mB2OVFq6HZdIsJ-1" value="Подготовить бригаду к работе" style="rounded=1;whiteSpace=wrap;html=1;fillColor=#FFFFFF;" vertex="1" parent="uUX3ez6QMEUYQmT7d_kK-1">
          <mxGeometry x="630" y="370" width="150" height="30" as="geometry" />
        </mxCell>
        <mxCell id="H99tdsUOtV-TQSB7iHhj-3" style="edgeStyle=orthogonalEdgeStyle;rounded=0;orthogonalLoop=1;jettySize=auto;html=1;entryX=0.5;entryY=0;entryDx=0;entryDy=0;" edge="1" parent="uUX3ez6QMEUYQmT7d_kK-1" source="H99tdsUOtV-TQSB7iHhj-0" target="H99tdsUOtV-TQSB7iHhj-2">
          <mxGeometry relative="1" as="geometry" />
        </mxCell>
        <mxCell id="H99tdsUOtV-TQSB7iHhj-0" value="Совершить прокладку компьютерной сети" style="rounded=1;whiteSpace=wrap;html=1;fillColor=#FFFFFF;" vertex="1" parent="uUX3ez6QMEUYQmT7d_kK-1">
          <mxGeometry x="815" y="370" width="150" height="30" as="geometry" />
        </mxCell>
        <mxCell id="9heQPyigp5FpevabpO9v-15" style="edgeStyle=orthogonalEdgeStyle;rounded=0;orthogonalLoop=1;jettySize=auto;html=1;entryX=0.5;entryY=0;entryDx=0;entryDy=0;" edge="1" parent="uUX3ez6QMEUYQmT7d_kK-1" source="H99tdsUOtV-TQSB7iHhj-2" target="9heQPyigp5FpevabpO9v-14">
          <mxGeometry relative="1" as="geometry" />
        </mxCell>
        <mxCell id="H99tdsUOtV-TQSB7iHhj-2" value="Произвести все проверки по завершению прокладки" style="rounded=1;whiteSpace=wrap;html=1;fillColor=#FFFFFF;" vertex="1" parent="uUX3ez6QMEUYQmT7d_kK-1">
          <mxGeometry x="812.5" y="425" width="155" height="30" as="geometry" />
        </mxCell>
        <mxCell id="H99tdsUOtV-TQSB7iHhj-6" style="edgeStyle=orthogonalEdgeStyle;rounded=0;orthogonalLoop=1;jettySize=auto;html=1;entryX=1;entryY=0.5;entryDx=0;entryDy=0;" edge="1" parent="uUX3ez6QMEUYQmT7d_kK-1" source="H99tdsUOtV-TQSB7iHhj-4" target="scAuZytiZJyH_DZWsamR-42">
          <mxGeometry relative="1" as="geometry">
            <mxPoint x="890" y="630" as="targetPoint" />
            <Array as="points">
              <mxPoint x="708" y="635" />
            </Array>
          </mxGeometry>
        </mxCell>
        <mxCell id="H99tdsUOtV-TQSB7iHhj-4" value="Предоставление готовой работы клиенту" style="rounded=1;whiteSpace=wrap;html=1;fillColor=#FFFFFF;" vertex="1" parent="uUX3ez6QMEUYQmT7d_kK-1">
          <mxGeometry x="630" y="490" width="155" height="30" as="geometry" />
        </mxCell>
        <mxCell id="wWNjClhWp6PEvyVv8Gg4-0" style="edgeStyle=orthogonalEdgeStyle;rounded=0;orthogonalLoop=1;jettySize=auto;html=1;entryX=0.5;entryY=0;entryDx=0;entryDy=0;" edge="1" parent="uUX3ez6QMEUYQmT7d_kK-1" source="mJKW6UsB958CqCDHoNlt-0" target="2G4g15oGxKfM3xVRji21-0">
          <mxGeometry relative="1" as="geometry" />
        </mxCell>
        <mxCell id="mJKW6UsB958CqCDHoNlt-0" value="Рассчитать сроки выполнения" style="rounded=1;whiteSpace=wrap;html=1;fillColor=#FFFFFF;" vertex="1" parent="uUX3ez6QMEUYQmT7d_kK-1">
          <mxGeometry x="1010" y="190" width="150" height="30" as="geometry" />
        </mxCell>
        <mxCell id="wWNjClhWp6PEvyVv8Gg4-2" style="edgeStyle=orthogonalEdgeStyle;rounded=0;orthogonalLoop=1;jettySize=auto;html=1;entryX=0.5;entryY=0;entryDx=0;entryDy=0;" edge="1" parent="uUX3ez6QMEUYQmT7d_kK-1" source="2G4g15oGxKfM3xVRji21-0" target="wWNjClhWp6PEvyVv8Gg4-1">
          <mxGeometry relative="1" as="geometry" />
        </mxCell>
        <mxCell id="2G4g15oGxKfM3xVRji21-0" value="Разделить разработку на определенные этапы" style="rounded=1;whiteSpace=wrap;html=1;fillColor=#FFFFFF;" vertex="1" parent="uUX3ez6QMEUYQmT7d_kK-1">
          <mxGeometry x="1010" y="260" width="150" height="30" as="geometry" />
        </mxCell>
        <mxCell id="Fs5vAvhapoDsN7N-0okb-3" style="edgeStyle=orthogonalEdgeStyle;rounded=0;orthogonalLoop=1;jettySize=auto;html=1;entryX=0;entryY=0.5;entryDx=0;entryDy=0;" edge="1" parent="uUX3ez6QMEUYQmT7d_kK-1" source="wWNjClhWp6PEvyVv8Gg4-1" target="Fs5vAvhapoDsN7N-0okb-2">
          <mxGeometry relative="1" as="geometry">
            <mxPoint x="1220" y="475" as="targetPoint" />
          </mxGeometry>
        </mxCell>
        <mxCell id="wWNjClhWp6PEvyVv8Gg4-1" value="Предоставить задание разработчикам" style="rounded=1;whiteSpace=wrap;html=1;fillColor=#FFFFFF;" vertex="1" parent="uUX3ez6QMEUYQmT7d_kK-1">
          <mxGeometry x="990" y="380" width="190" height="30" as="geometry" />
        </mxCell>
        <mxCell id="9heQPyigp5FpevabpO9v-1" style="edgeStyle=orthogonalEdgeStyle;rounded=0;orthogonalLoop=1;jettySize=auto;html=1;entryX=0;entryY=0.5;entryDx=0;entryDy=0;" edge="1" parent="uUX3ez6QMEUYQmT7d_kK-1" source="-Ahxsru4Xd_z4ovTZJc_-0" target="9heQPyigp5FpevabpO9v-0">
          <mxGeometry relative="1" as="geometry" />
        </mxCell>
        <mxCell id="-Ahxsru4Xd_z4ovTZJc_-0" value="Предоставить информацию о продукте тестировщикам" style="rounded=1;whiteSpace=wrap;html=1;fillColor=#FFFFFF;" vertex="1" parent="uUX3ez6QMEUYQmT7d_kK-1">
          <mxGeometry x="990" y="320" width="190" height="30" as="geometry" />
        </mxCell>
        <mxCell id="LTyismbHRzcB0Al5y5Jh-1" style="edgeStyle=orthogonalEdgeStyle;rounded=0;orthogonalLoop=1;jettySize=auto;html=1;entryX=0.5;entryY=0;entryDx=0;entryDy=0;" edge="1" parent="uUX3ez6QMEUYQmT7d_kK-1" source="Fs5vAvhapoDsN7N-0okb-2" target="LTyismbHRzcB0Al5y5Jh-0">
          <mxGeometry relative="1" as="geometry" />
        </mxCell>
        <mxCell id="Fs5vAvhapoDsN7N-0okb-2" value="Разработать продукт опираясь на ТЗ" style="rounded=1;whiteSpace=wrap;html=1;fillColor=#FFFFFF;" vertex="1" parent="uUX3ez6QMEUYQmT7d_kK-1">
          <mxGeometry x="1221" y="380" width="150" height="30" as="geometry" />
        </mxCell>
        <mxCell id="9heQPyigp5FpevabpO9v-3" style="edgeStyle=orthogonalEdgeStyle;rounded=0;orthogonalLoop=1;jettySize=auto;html=1;entryX=0;entryY=0.5;entryDx=0;entryDy=0;" edge="1" parent="uUX3ez6QMEUYQmT7d_kK-1" source="LTyismbHRzcB0Al5y5Jh-0" target="9heQPyigp5FpevabpO9v-2">
          <mxGeometry relative="1" as="geometry" />
        </mxCell>
        <mxCell id="LTyismbHRzcB0Al5y5Jh-0" value="Предоставить продукт на тестирование" style="rounded=1;whiteSpace=wrap;html=1;fillColor=#FFFFFF;" vertex="1" parent="uUX3ez6QMEUYQmT7d_kK-1">
          <mxGeometry x="1221" y="435" width="150" height="30" as="geometry" />
        </mxCell>
        <mxCell id="9heQPyigp5FpevabpO9v-4" style="edgeStyle=orthogonalEdgeStyle;rounded=0;orthogonalLoop=1;jettySize=auto;html=1;entryX=0.5;entryY=0;entryDx=0;entryDy=0;" edge="1" parent="uUX3ez6QMEUYQmT7d_kK-1" source="9heQPyigp5FpevabpO9v-0" target="9heQPyigp5FpevabpO9v-2">
          <mxGeometry relative="1" as="geometry" />
        </mxCell>
        <mxCell id="9heQPyigp5FpevabpO9v-0" value="Разработать план тестирования продукта" style="rounded=1;whiteSpace=wrap;html=1;fillColor=#FFFFFF;" vertex="1" parent="uUX3ez6QMEUYQmT7d_kK-1">
          <mxGeometry x="1440" y="320" width="150" height="30" as="geometry" />
        </mxCell>
        <mxCell id="9heQPyigp5FpevabpO9v-7" style="edgeStyle=orthogonalEdgeStyle;rounded=0;orthogonalLoop=1;jettySize=auto;html=1;entryX=0.5;entryY=0;entryDx=0;entryDy=0;" edge="1" parent="uUX3ez6QMEUYQmT7d_kK-1" source="9heQPyigp5FpevabpO9v-2" target="9heQPyigp5FpevabpO9v-5">
          <mxGeometry relative="1" as="geometry" />
        </mxCell>
        <mxCell id="9heQPyigp5FpevabpO9v-2" value="Протестировать продукт согласно плану" style="rounded=1;whiteSpace=wrap;html=1;fillColor=#FFFFFF;" vertex="1" parent="uUX3ez6QMEUYQmT7d_kK-1">
          <mxGeometry x="1440" y="435" width="150" height="30" as="geometry" />
        </mxCell>
        <mxCell id="9heQPyigp5FpevabpO9v-8" style="edgeStyle=orthogonalEdgeStyle;rounded=0;orthogonalLoop=1;jettySize=auto;html=1;entryX=0.5;entryY=0;entryDx=0;entryDy=0;" edge="1" parent="uUX3ez6QMEUYQmT7d_kK-1" source="9heQPyigp5FpevabpO9v-5" target="9heQPyigp5FpevabpO9v-6">
          <mxGeometry relative="1" as="geometry" />
        </mxCell>
        <mxCell id="9heQPyigp5FpevabpO9v-5" value="Отчет по фактическому результату" style="rounded=1;whiteSpace=wrap;html=1;fillColor=#FFFFFF;" vertex="1" parent="uUX3ez6QMEUYQmT7d_kK-1">
          <mxGeometry x="1440" y="490" width="150" height="30" as="geometry" />
        </mxCell>
        <mxCell id="9heQPyigp5FpevabpO9v-10" style="edgeStyle=orthogonalEdgeStyle;rounded=0;orthogonalLoop=1;jettySize=auto;html=1;entryX=1;entryY=0.5;entryDx=0;entryDy=0;" edge="1" parent="uUX3ez6QMEUYQmT7d_kK-1" source="9heQPyigp5FpevabpO9v-6" target="9heQPyigp5FpevabpO9v-9">
          <mxGeometry relative="1" as="geometry" />
        </mxCell>
        <mxCell id="9heQPyigp5FpevabpO9v-6" value="Отправка продукта на доработку" style="rounded=1;whiteSpace=wrap;html=1;fillColor=#FFFFFF;" vertex="1" parent="uUX3ez6QMEUYQmT7d_kK-1">
          <mxGeometry x="1440" y="540" width="150" height="30" as="geometry" />
        </mxCell>
        <mxCell id="9heQPyigp5FpevabpO9v-12" style="edgeStyle=orthogonalEdgeStyle;rounded=0;orthogonalLoop=1;jettySize=auto;html=1;entryX=1;entryY=0.5;entryDx=0;entryDy=0;" edge="1" parent="uUX3ez6QMEUYQmT7d_kK-1" source="9heQPyigp5FpevabpO9v-9" target="9heQPyigp5FpevabpO9v-11">
          <mxGeometry relative="1" as="geometry" />
        </mxCell>
        <mxCell id="9heQPyigp5FpevabpO9v-9" value="Доработка продукта" style="rounded=1;whiteSpace=wrap;html=1;fillColor=#FFFFFF;" vertex="1" parent="uUX3ez6QMEUYQmT7d_kK-1">
          <mxGeometry x="1221" y="540" width="150" height="30" as="geometry" />
        </mxCell>
        <mxCell id="9heQPyigp5FpevabpO9v-13" style="edgeStyle=orthogonalEdgeStyle;rounded=0;orthogonalLoop=1;jettySize=auto;html=1;entryX=0.5;entryY=1;entryDx=0;entryDy=0;" edge="1" parent="uUX3ez6QMEUYQmT7d_kK-1" source="9heQPyigp5FpevabpO9v-11" target="scAuZytiZJyH_DZWsamR-42">
          <mxGeometry relative="1" as="geometry">
            <mxPoint x="330" y="650" as="targetPoint" />
            <Array as="points">
              <mxPoint x="1085" y="660" />
              <mxPoint x="330" y="660" />
            </Array>
          </mxGeometry>
        </mxCell>
        <mxCell id="9heQPyigp5FpevabpO9v-11" value="Готовый продукт" style="rounded=1;whiteSpace=wrap;html=1;fillColor=#FFFFFF;" vertex="1" parent="uUX3ez6QMEUYQmT7d_kK-1">
          <mxGeometry x="1010" y="540" width="150" height="30" as="geometry" />
        </mxCell>
        <mxCell id="9heQPyigp5FpevabpO9v-16" style="edgeStyle=orthogonalEdgeStyle;rounded=0;orthogonalLoop=1;jettySize=auto;html=1;entryX=1;entryY=0.5;entryDx=0;entryDy=0;" edge="1" parent="uUX3ez6QMEUYQmT7d_kK-1" source="9heQPyigp5FpevabpO9v-14" target="H99tdsUOtV-TQSB7iHhj-4">
          <mxGeometry relative="1" as="geometry" />
        </mxCell>
        <mxCell id="9heQPyigp5FpevabpO9v-14" value="&amp;nbsp;Предоставить работу начальнику бригады" style="rounded=1;whiteSpace=wrap;html=1;fillColor=#FFFFFF;" vertex="1" parent="uUX3ez6QMEUYQmT7d_kK-1">
          <mxGeometry x="812.5" y="490" width="155" height="30" as="geometry" />
        </mxCell>
      </root>
    </mxGraphModel>
  </diagram>
  <diagram id="cWBAtnno8WTP0MS5Xz1H" name="Диаграмму последовательности">
    <mxGraphModel dx="2946" dy="1597" grid="1" gridSize="10" guides="1" tooltips="1" connect="1" arrows="1" fold="1" page="1" pageScale="1" pageWidth="827" pageHeight="1169" math="0" shadow="0">
      <root>
        <mxCell id="XEbBIGVeSjS7YvT_7zZj-0" />
        <mxCell id="XEbBIGVeSjS7YvT_7zZj-1" parent="XEbBIGVeSjS7YvT_7zZj-0" />
        <mxCell id="XEbBIGVeSjS7YvT_7zZj-2" value="Клиент" style="shape=umlActor;verticalLabelPosition=bottom;verticalAlign=top;html=1;outlineConnect=0;fillColor=#FFFFFF;" vertex="1" parent="XEbBIGVeSjS7YvT_7zZj-1">
          <mxGeometry x="80" y="30" width="30" height="60" as="geometry" />
        </mxCell>
        <mxCell id="XEbBIGVeSjS7YvT_7zZj-3" value="Список предоставляемых услуг" style="rounded=0;whiteSpace=wrap;html=1;fillColor=#FFFFFF;" vertex="1" parent="XEbBIGVeSjS7YvT_7zZj-1">
          <mxGeometry x="180" y="60" width="160" height="30" as="geometry" />
        </mxCell>
        <mxCell id="XEbBIGVeSjS7YvT_7zZj-4" value="" style="rounded=0;whiteSpace=wrap;html=1;fillColor=#FFFFFF;" vertex="1" parent="XEbBIGVeSjS7YvT_7zZj-1">
          <mxGeometry x="90" y="120" width="10" height="60" as="geometry" />
        </mxCell>
        <mxCell id="XEbBIGVeSjS7YvT_7zZj-5" value="" style="rounded=0;whiteSpace=wrap;html=1;fillColor=#FFFFFF;" vertex="1" parent="XEbBIGVeSjS7YvT_7zZj-1">
          <mxGeometry x="255" y="120" width="10" height="60" as="geometry" />
        </mxCell>
        <mxCell id="XEbBIGVeSjS7YvT_7zZj-6" value="" style="endArrow=classic;html=1;exitX=1;exitY=0.5;exitDx=0;exitDy=0;entryX=0;entryY=0.5;entryDx=0;entryDy=0;" edge="1" parent="XEbBIGVeSjS7YvT_7zZj-1" source="XEbBIGVeSjS7YvT_7zZj-4" target="XEbBIGVeSjS7YvT_7zZj-5">
          <mxGeometry width="50" height="50" relative="1" as="geometry">
            <mxPoint x="180" y="220" as="sourcePoint" />
            <mxPoint x="250" y="150" as="targetPoint" />
          </mxGeometry>
        </mxCell>
        <mxCell id="XEbBIGVeSjS7YvT_7zZj-7" value="Просмотр списка услуг" style="text;html=1;strokeColor=none;fillColor=none;align=center;verticalAlign=middle;whiteSpace=wrap;rounded=0;" vertex="1" parent="XEbBIGVeSjS7YvT_7zZj-1">
          <mxGeometry x="110" y="130" width="135" height="20" as="geometry" />
        </mxCell>
        <mxCell id="XEbBIGVeSjS7YvT_7zZj-12" style="edgeStyle=orthogonalEdgeStyle;rounded=0;orthogonalLoop=1;jettySize=auto;html=1;entryX=0;entryY=0.5;entryDx=0;entryDy=0;" edge="1" parent="XEbBIGVeSjS7YvT_7zZj-1" source="XEbBIGVeSjS7YvT_7zZj-9" target="XEbBIGVeSjS7YvT_7zZj-11">
          <mxGeometry relative="1" as="geometry" />
        </mxCell>
        <mxCell id="XEbBIGVeSjS7YvT_7zZj-9" value="" style="rounded=0;whiteSpace=wrap;html=1;fillColor=#FFFFFF;" vertex="1" parent="XEbBIGVeSjS7YvT_7zZj-1">
          <mxGeometry x="90" y="210" width="10" height="60" as="geometry" />
        </mxCell>
        <mxCell id="XEbBIGVeSjS7YvT_7zZj-10" value="Менеджер" style="shape=umlActor;verticalLabelPosition=bottom;verticalAlign=top;html=1;outlineConnect=0;fillColor=#FFFFFF;" vertex="1" parent="XEbBIGVeSjS7YvT_7zZj-1">
          <mxGeometry x="414" y="30" width="30" height="60" as="geometry" />
        </mxCell>
        <mxCell id="XEbBIGVeSjS7YvT_7zZj-11" value="" style="rounded=0;whiteSpace=wrap;html=1;fillColor=#FFFFFF;" vertex="1" parent="XEbBIGVeSjS7YvT_7zZj-1">
          <mxGeometry x="424" y="210" width="10" height="60" as="geometry" />
        </mxCell>
        <mxCell id="XEbBIGVeSjS7YvT_7zZj-13" value="Оформление заявки на определенный вид работы" style="text;html=1;strokeColor=none;fillColor=none;align=center;verticalAlign=middle;whiteSpace=wrap;rounded=0;" vertex="1" parent="XEbBIGVeSjS7YvT_7zZj-1">
          <mxGeometry x="115" y="220" width="290" height="20" as="geometry" />
        </mxCell>
        <mxCell id="XEbBIGVeSjS7YvT_7zZj-16" style="edgeStyle=orthogonalEdgeStyle;rounded=0;orthogonalLoop=1;jettySize=auto;html=1;entryX=1;entryY=0.5;entryDx=0;entryDy=0;" edge="1" parent="XEbBIGVeSjS7YvT_7zZj-1" source="XEbBIGVeSjS7YvT_7zZj-14" target="XEbBIGVeSjS7YvT_7zZj-15">
          <mxGeometry relative="1" as="geometry" />
        </mxCell>
        <mxCell id="XEbBIGVeSjS7YvT_7zZj-14" value="" style="rounded=0;whiteSpace=wrap;html=1;fillColor=#FFFFFF;" vertex="1" parent="XEbBIGVeSjS7YvT_7zZj-1">
          <mxGeometry x="424" y="290" width="10" height="60" as="geometry" />
        </mxCell>
        <mxCell id="XEbBIGVeSjS7YvT_7zZj-15" value="" style="rounded=0;whiteSpace=wrap;html=1;fillColor=#FFFFFF;" vertex="1" parent="XEbBIGVeSjS7YvT_7zZj-1">
          <mxGeometry x="90" y="290" width="10" height="60" as="geometry" />
        </mxCell>
        <mxCell id="XEbBIGVeSjS7YvT_7zZj-17" value="Уточнение деталей заказа" style="text;html=1;strokeColor=none;fillColor=none;align=center;verticalAlign=middle;whiteSpace=wrap;rounded=0;" vertex="1" parent="XEbBIGVeSjS7YvT_7zZj-1">
          <mxGeometry x="185" y="300" width="155" height="20" as="geometry" />
        </mxCell>
        <mxCell id="XEbBIGVeSjS7YvT_7zZj-18" style="edgeStyle=orthogonalEdgeStyle;rounded=0;orthogonalLoop=1;jettySize=auto;html=1;entryX=0;entryY=0.5;entryDx=0;entryDy=0;" edge="1" parent="XEbBIGVeSjS7YvT_7zZj-1" source="XEbBIGVeSjS7YvT_7zZj-19" target="XEbBIGVeSjS7YvT_7zZj-20">
          <mxGeometry relative="1" as="geometry" />
        </mxCell>
        <mxCell id="XEbBIGVeSjS7YvT_7zZj-19" value="" style="rounded=0;whiteSpace=wrap;html=1;fillColor=#FFFFFF;" vertex="1" parent="XEbBIGVeSjS7YvT_7zZj-1">
          <mxGeometry x="90.5" y="370" width="10" height="60" as="geometry" />
        </mxCell>
        <mxCell id="XEbBIGVeSjS7YvT_7zZj-20" value="" style="rounded=0;whiteSpace=wrap;html=1;fillColor=#FFFFFF;" vertex="1" parent="XEbBIGVeSjS7YvT_7zZj-1">
          <mxGeometry x="424.5" y="370" width="10" height="60" as="geometry" />
        </mxCell>
        <mxCell id="XEbBIGVeSjS7YvT_7zZj-21" value="Предоставление всей нужной информации" style="text;html=1;strokeColor=none;fillColor=none;align=center;verticalAlign=middle;whiteSpace=wrap;rounded=0;" vertex="1" parent="XEbBIGVeSjS7YvT_7zZj-1">
          <mxGeometry x="137.75" y="380" width="244.5" height="20" as="geometry" />
        </mxCell>
        <mxCell id="XEbBIGVeSjS7YvT_7zZj-26" style="edgeStyle=orthogonalEdgeStyle;rounded=0;orthogonalLoop=1;jettySize=auto;html=1;entryX=0;entryY=0.5;entryDx=0;entryDy=0;" edge="1" parent="XEbBIGVeSjS7YvT_7zZj-1" source="XEbBIGVeSjS7YvT_7zZj-22" target="XEbBIGVeSjS7YvT_7zZj-25">
          <mxGeometry relative="1" as="geometry" />
        </mxCell>
        <mxCell id="XEbBIGVeSjS7YvT_7zZj-22" value="" style="rounded=0;whiteSpace=wrap;html=1;fillColor=#FFFFFF;" vertex="1" parent="XEbBIGVeSjS7YvT_7zZj-1">
          <mxGeometry x="424" y="450" width="10" height="60" as="geometry" />
        </mxCell>
        <mxCell id="XEbBIGVeSjS7YvT_7zZj-24" value="Бухгалтер" style="shape=umlActor;verticalLabelPosition=bottom;verticalAlign=top;html=1;outlineConnect=0;fillColor=#FFFFFF;" vertex="1" parent="XEbBIGVeSjS7YvT_7zZj-1">
          <mxGeometry x="630" y="30" width="30" height="60" as="geometry" />
        </mxCell>
        <mxCell id="XEbBIGVeSjS7YvT_7zZj-25" value="" style="rounded=0;whiteSpace=wrap;html=1;fillColor=#FFFFFF;" vertex="1" parent="XEbBIGVeSjS7YvT_7zZj-1">
          <mxGeometry x="640" y="450" width="10" height="60" as="geometry" />
        </mxCell>
        <mxCell id="XEbBIGVeSjS7YvT_7zZj-27" value="Информация о заказе" style="text;html=1;strokeColor=none;fillColor=none;align=center;verticalAlign=middle;whiteSpace=wrap;rounded=0;" vertex="1" parent="XEbBIGVeSjS7YvT_7zZj-1">
          <mxGeometry x="470" y="460" width="136" height="20" as="geometry" />
        </mxCell>
        <mxCell id="cJ8uqvKM2srsgwgLhjwL-2" style="edgeStyle=orthogonalEdgeStyle;rounded=0;orthogonalLoop=1;jettySize=auto;html=1;entryX=1;entryY=0.5;entryDx=0;entryDy=0;" edge="1" parent="XEbBIGVeSjS7YvT_7zZj-1" source="cJ8uqvKM2srsgwgLhjwL-0" target="cJ8uqvKM2srsgwgLhjwL-1">
          <mxGeometry relative="1" as="geometry" />
        </mxCell>
        <mxCell id="cJ8uqvKM2srsgwgLhjwL-0" value="" style="rounded=0;whiteSpace=wrap;html=1;fillColor=#FFFFFF;" vertex="1" parent="XEbBIGVeSjS7YvT_7zZj-1">
          <mxGeometry x="640" y="525" width="10" height="60" as="geometry" />
        </mxCell>
        <mxCell id="cJ8uqvKM2srsgwgLhjwL-1" value="" style="rounded=0;whiteSpace=wrap;html=1;fillColor=#FFFFFF;" vertex="1" parent="XEbBIGVeSjS7YvT_7zZj-1">
          <mxGeometry x="90.5" y="525" width="10" height="60" as="geometry" />
        </mxCell>
        <mxCell id="cJ8uqvKM2srsgwgLhjwL-3" value="Предоставление счета к оплате" style="text;html=1;strokeColor=none;fillColor=none;align=center;verticalAlign=middle;whiteSpace=wrap;rounded=0;" vertex="1" parent="XEbBIGVeSjS7YvT_7zZj-1">
          <mxGeometry x="274" y="530" width="194.5" height="20" as="geometry" />
        </mxCell>
        <mxCell id="cJ8uqvKM2srsgwgLhjwL-6" style="edgeStyle=orthogonalEdgeStyle;rounded=0;orthogonalLoop=1;jettySize=auto;html=1;entryX=0;entryY=0.5;entryDx=0;entryDy=0;" edge="1" parent="XEbBIGVeSjS7YvT_7zZj-1" source="cJ8uqvKM2srsgwgLhjwL-4" target="cJ8uqvKM2srsgwgLhjwL-5">
          <mxGeometry relative="1" as="geometry" />
        </mxCell>
        <mxCell id="cJ8uqvKM2srsgwgLhjwL-4" value="" style="rounded=0;whiteSpace=wrap;html=1;fillColor=#FFFFFF;" vertex="1" parent="XEbBIGVeSjS7YvT_7zZj-1">
          <mxGeometry x="90" y="610" width="10" height="60" as="geometry" />
        </mxCell>
        <mxCell id="cJ8uqvKM2srsgwgLhjwL-5" value="" style="rounded=0;whiteSpace=wrap;html=1;fillColor=#FFFFFF;" vertex="1" parent="XEbBIGVeSjS7YvT_7zZj-1">
          <mxGeometry x="640" y="610" width="10" height="60" as="geometry" />
        </mxCell>
        <mxCell id="cJ8uqvKM2srsgwgLhjwL-7" value="Оплата счета" style="text;html=1;strokeColor=none;fillColor=none;align=center;verticalAlign=middle;whiteSpace=wrap;rounded=0;" vertex="1" parent="XEbBIGVeSjS7YvT_7zZj-1">
          <mxGeometry x="329" y="620" width="84.5" height="20" as="geometry" />
        </mxCell>
        <mxCell id="0Imysz43TrLlRYimRzio-2" style="edgeStyle=orthogonalEdgeStyle;rounded=0;orthogonalLoop=1;jettySize=auto;html=1;entryX=1;entryY=0.5;entryDx=0;entryDy=0;" edge="1" parent="XEbBIGVeSjS7YvT_7zZj-1" source="0Imysz43TrLlRYimRzio-0" target="0Imysz43TrLlRYimRzio-1">
          <mxGeometry relative="1" as="geometry" />
        </mxCell>
        <mxCell id="0Imysz43TrLlRYimRzio-0" value="" style="rounded=0;whiteSpace=wrap;html=1;fillColor=#FFFFFF;" vertex="1" parent="XEbBIGVeSjS7YvT_7zZj-1">
          <mxGeometry x="640" y="700" width="10" height="60" as="geometry" />
        </mxCell>
        <mxCell id="0Imysz43TrLlRYimRzio-1" value="" style="rounded=0;whiteSpace=wrap;html=1;fillColor=#FFFFFF;" vertex="1" parent="XEbBIGVeSjS7YvT_7zZj-1">
          <mxGeometry x="424.5" y="700" width="10" height="60" as="geometry" />
        </mxCell>
        <mxCell id="0Imysz43TrLlRYimRzio-3" value="Информация об оплате" style="text;html=1;strokeColor=none;fillColor=none;align=center;verticalAlign=middle;whiteSpace=wrap;rounded=0;" vertex="1" parent="XEbBIGVeSjS7YvT_7zZj-1">
          <mxGeometry x="468.5" y="710" width="136" height="20" as="geometry" />
        </mxCell>
        <mxCell id="6LE_w9hveSRhjaUEb_eX-4" style="edgeStyle=orthogonalEdgeStyle;rounded=0;orthogonalLoop=1;jettySize=auto;html=1;entryX=0;entryY=0.5;entryDx=0;entryDy=0;" edge="1" parent="XEbBIGVeSjS7YvT_7zZj-1" source="0Imysz43TrLlRYimRzio-4" target="6LE_w9hveSRhjaUEb_eX-3">
          <mxGeometry relative="1" as="geometry" />
        </mxCell>
        <mxCell id="0Imysz43TrLlRYimRzio-4" value="" style="rounded=0;whiteSpace=wrap;html=1;fillColor=#FFFFFF;" vertex="1" parent="XEbBIGVeSjS7YvT_7zZj-1">
          <mxGeometry x="424.5" y="780" width="10" height="60" as="geometry" />
        </mxCell>
        <mxCell id="0Imysz43TrLlRYimRzio-5" value="" style="rounded=0;whiteSpace=wrap;html=1;fillColor=#FFFFFF;" vertex="1" parent="XEbBIGVeSjS7YvT_7zZj-1">
          <mxGeometry x="856" y="920" width="10" height="60" as="geometry" />
        </mxCell>
        <mxCell id="6LE_w9hveSRhjaUEb_eX-2" value="Начальник Бригады" style="shape=umlActor;verticalLabelPosition=bottom;verticalAlign=top;html=1;outlineConnect=0;fillColor=#FFFFFF;" vertex="1" parent="XEbBIGVeSjS7YvT_7zZj-1">
          <mxGeometry x="846" y="30" width="30" height="60" as="geometry" />
        </mxCell>
        <mxCell id="6LE_w9hveSRhjaUEb_eX-3" value="" style="rounded=0;whiteSpace=wrap;html=1;fillColor=#FFFFFF;" vertex="1" parent="XEbBIGVeSjS7YvT_7zZj-1">
          <mxGeometry x="856" y="780" width="10" height="60" as="geometry" />
        </mxCell>
        <mxCell id="6LE_w9hveSRhjaUEb_eX-5" value="Составление договора и передача необходимой информации" style="text;html=1;strokeColor=none;fillColor=none;align=center;verticalAlign=middle;whiteSpace=wrap;rounded=0;" vertex="1" parent="XEbBIGVeSjS7YvT_7zZj-1">
          <mxGeometry x="474" y="790" width="353" height="20" as="geometry" />
        </mxCell>
        <mxCell id="6LE_w9hveSRhjaUEb_eX-6" value="" style="endArrow=none;dashed=1;html=1;" edge="1" parent="XEbBIGVeSjS7YvT_7zZj-1">
          <mxGeometry width="50" height="50" relative="1" as="geometry">
            <mxPoint x="95.38" y="120" as="sourcePoint" />
            <mxPoint x="95.63" y="110" as="targetPoint" />
          </mxGeometry>
        </mxCell>
        <mxCell id="6LE_w9hveSRhjaUEb_eX-7" value="" style="endArrow=none;dashed=1;html=1;exitX=0.497;exitY=-0.026;exitDx=0;exitDy=0;exitPerimeter=0;" edge="1" parent="XEbBIGVeSjS7YvT_7zZj-1" source="XEbBIGVeSjS7YvT_7zZj-9">
          <mxGeometry width="50" height="50" relative="1" as="geometry">
            <mxPoint x="94.88" y="190" as="sourcePoint" />
            <mxPoint x="95.13" y="180" as="targetPoint" />
          </mxGeometry>
        </mxCell>
        <mxCell id="6LE_w9hveSRhjaUEb_eX-9" value="" style="endArrow=none;dashed=1;html=1;entryX=0.5;entryY=1;entryDx=0;entryDy=0;exitX=0.5;exitY=0;exitDx=0;exitDy=0;" edge="1" parent="XEbBIGVeSjS7YvT_7zZj-1" source="XEbBIGVeSjS7YvT_7zZj-15" target="XEbBIGVeSjS7YvT_7zZj-9">
          <mxGeometry width="50" height="50" relative="1" as="geometry">
            <mxPoint x="140" y="300" as="sourcePoint" />
            <mxPoint x="190" y="250" as="targetPoint" />
          </mxGeometry>
        </mxCell>
        <mxCell id="6LE_w9hveSRhjaUEb_eX-11" value="" style="endArrow=none;dashed=1;html=1;entryX=0.5;entryY=1;entryDx=0;entryDy=0;exitX=0.5;exitY=0;exitDx=0;exitDy=0;" edge="1" parent="XEbBIGVeSjS7YvT_7zZj-1" source="XEbBIGVeSjS7YvT_7zZj-19" target="XEbBIGVeSjS7YvT_7zZj-15">
          <mxGeometry width="50" height="50" relative="1" as="geometry">
            <mxPoint x="140" y="340" as="sourcePoint" />
            <mxPoint x="190" y="290" as="targetPoint" />
          </mxGeometry>
        </mxCell>
        <mxCell id="6LE_w9hveSRhjaUEb_eX-12" value="" style="endArrow=none;dashed=1;html=1;exitX=0.5;exitY=0;exitDx=0;exitDy=0;entryX=0.5;entryY=1;entryDx=0;entryDy=0;" edge="1" parent="XEbBIGVeSjS7YvT_7zZj-1" source="cJ8uqvKM2srsgwgLhjwL-1" target="XEbBIGVeSjS7YvT_7zZj-19">
          <mxGeometry width="50" height="50" relative="1" as="geometry">
            <mxPoint x="150" y="350" as="sourcePoint" />
            <mxPoint x="200" y="300" as="targetPoint" />
          </mxGeometry>
        </mxCell>
        <mxCell id="6LE_w9hveSRhjaUEb_eX-13" value="" style="endArrow=none;dashed=1;html=1;exitX=0.5;exitY=0;exitDx=0;exitDy=0;entryX=0.5;entryY=1;entryDx=0;entryDy=0;" edge="1" parent="XEbBIGVeSjS7YvT_7zZj-1" source="cJ8uqvKM2srsgwgLhjwL-4" target="cJ8uqvKM2srsgwgLhjwL-1">
          <mxGeometry width="50" height="50" relative="1" as="geometry">
            <mxPoint x="160" y="360" as="sourcePoint" />
            <mxPoint x="210" y="310" as="targetPoint" />
          </mxGeometry>
        </mxCell>
        <mxCell id="6LE_w9hveSRhjaUEb_eX-14" value="" style="endArrow=none;dashed=1;html=1;entryX=0.5;entryY=1;entryDx=0;entryDy=0;exitX=0.5;exitY=0;exitDx=0;exitDy=0;" edge="1" parent="XEbBIGVeSjS7YvT_7zZj-1" source="kDm7CaoeFoQdI0Qj_f_3-14" target="cJ8uqvKM2srsgwgLhjwL-4">
          <mxGeometry width="50" height="50" relative="1" as="geometry">
            <mxPoint x="95" y="930" as="sourcePoint" />
            <mxPoint x="115" y="705" as="targetPoint" />
          </mxGeometry>
        </mxCell>
        <mxCell id="kDm7CaoeFoQdI0Qj_f_3-6" style="edgeStyle=orthogonalEdgeStyle;rounded=0;orthogonalLoop=1;jettySize=auto;html=1;entryX=0;entryY=0.5;entryDx=0;entryDy=0;" edge="1" parent="XEbBIGVeSjS7YvT_7zZj-1" source="kDm7CaoeFoQdI0Qj_f_3-0" target="kDm7CaoeFoQdI0Qj_f_3-5">
          <mxGeometry relative="1" as="geometry" />
        </mxCell>
        <mxCell id="kDm7CaoeFoQdI0Qj_f_3-0" value="" style="rounded=0;whiteSpace=wrap;html=1;fillColor=#FFFFFF;" vertex="1" parent="XEbBIGVeSjS7YvT_7zZj-1">
          <mxGeometry x="856" y="120" width="10" height="60" as="geometry" />
        </mxCell>
        <mxCell id="kDm7CaoeFoQdI0Qj_f_3-4" value="Бригада" style="shape=umlActor;verticalLabelPosition=bottom;verticalAlign=top;html=1;outlineConnect=0;fillColor=#FFFFFF;" vertex="1" parent="XEbBIGVeSjS7YvT_7zZj-1">
          <mxGeometry x="1062" y="30" width="30" height="60" as="geometry" />
        </mxCell>
        <mxCell id="kDm7CaoeFoQdI0Qj_f_3-5" value="" style="rounded=0;whiteSpace=wrap;html=1;fillColor=#FFFFFF;" vertex="1" parent="XEbBIGVeSjS7YvT_7zZj-1">
          <mxGeometry x="1072" y="120" width="10" height="60" as="geometry" />
        </mxCell>
        <mxCell id="kDm7CaoeFoQdI0Qj_f_3-7" value="Информация и материалы" style="text;html=1;strokeColor=none;fillColor=none;align=center;verticalAlign=middle;whiteSpace=wrap;rounded=0;" vertex="1" parent="XEbBIGVeSjS7YvT_7zZj-1">
          <mxGeometry x="890" y="130" width="156" height="20" as="geometry" />
        </mxCell>
        <mxCell id="kDm7CaoeFoQdI0Qj_f_3-9" style="edgeStyle=orthogonalEdgeStyle;rounded=0;orthogonalLoop=1;jettySize=auto;html=1;entryX=1;entryY=0.5;entryDx=0;entryDy=0;" edge="1" parent="XEbBIGVeSjS7YvT_7zZj-1" source="kDm7CaoeFoQdI0Qj_f_3-8" target="0Imysz43TrLlRYimRzio-5">
          <mxGeometry relative="1" as="geometry" />
        </mxCell>
        <mxCell id="kDm7CaoeFoQdI0Qj_f_3-8" value="" style="rounded=0;whiteSpace=wrap;html=1;fillColor=#FFFFFF;" vertex="1" parent="XEbBIGVeSjS7YvT_7zZj-1">
          <mxGeometry x="1072" y="920" width="10" height="60" as="geometry" />
        </mxCell>
        <mxCell id="kDm7CaoeFoQdI0Qj_f_3-10" value="Готовая работа" style="text;html=1;strokeColor=none;fillColor=none;align=center;verticalAlign=middle;whiteSpace=wrap;rounded=0;" vertex="1" parent="XEbBIGVeSjS7YvT_7zZj-1">
          <mxGeometry x="918" y="930" width="100" height="20" as="geometry" />
        </mxCell>
        <mxCell id="kDm7CaoeFoQdI0Qj_f_3-11" value="" style="endArrow=none;dashed=1;html=1;" edge="1" parent="XEbBIGVeSjS7YvT_7zZj-1">
          <mxGeometry width="50" height="50" relative="1" as="geometry">
            <mxPoint x="259.86" y="120" as="sourcePoint" />
            <mxPoint x="260.11" y="110" as="targetPoint" />
          </mxGeometry>
        </mxCell>
        <mxCell id="kDm7CaoeFoQdI0Qj_f_3-12" value="" style="endArrow=none;dashed=1;html=1;entryX=0.5;entryY=1;entryDx=0;entryDy=0;" edge="1" parent="XEbBIGVeSjS7YvT_7zZj-1" target="XEbBIGVeSjS7YvT_7zZj-5">
          <mxGeometry width="50" height="50" relative="1" as="geometry">
            <mxPoint x="260" y="1320" as="sourcePoint" />
            <mxPoint x="440" y="300" as="targetPoint" />
          </mxGeometry>
        </mxCell>
        <mxCell id="kDm7CaoeFoQdI0Qj_f_3-15" style="edgeStyle=orthogonalEdgeStyle;rounded=0;orthogonalLoop=1;jettySize=auto;html=1;" edge="1" parent="XEbBIGVeSjS7YvT_7zZj-1" source="kDm7CaoeFoQdI0Qj_f_3-13" target="kDm7CaoeFoQdI0Qj_f_3-14">
          <mxGeometry relative="1" as="geometry" />
        </mxCell>
        <mxCell id="kDm7CaoeFoQdI0Qj_f_3-13" value="" style="rounded=0;whiteSpace=wrap;html=1;fillColor=#FFFFFF;" vertex="1" parent="XEbBIGVeSjS7YvT_7zZj-1">
          <mxGeometry x="856" y="1000" width="10" height="60" as="geometry" />
        </mxCell>
        <mxCell id="kDm7CaoeFoQdI0Qj_f_3-14" value="" style="rounded=0;whiteSpace=wrap;html=1;fillColor=#FFFFFF;" vertex="1" parent="XEbBIGVeSjS7YvT_7zZj-1">
          <mxGeometry x="90" y="1000" width="10" height="60" as="geometry" />
        </mxCell>
        <mxCell id="kDm7CaoeFoQdI0Qj_f_3-16" value="Предоставление готовой работы" style="text;html=1;strokeColor=none;fillColor=none;align=center;verticalAlign=middle;whiteSpace=wrap;rounded=0;" vertex="1" parent="XEbBIGVeSjS7YvT_7zZj-1">
          <mxGeometry x="382.25" y="1010" width="191.5" height="20" as="geometry" />
        </mxCell>
        <mxCell id="kDm7CaoeFoQdI0Qj_f_3-18" value="Тимлид" style="shape=umlActor;verticalLabelPosition=bottom;verticalAlign=top;html=1;outlineConnect=0;fillColor=#FFFFFF;" vertex="1" parent="XEbBIGVeSjS7YvT_7zZj-1">
          <mxGeometry x="1278" y="30" width="30" height="60" as="geometry" />
        </mxCell>
        <mxCell id="kDm7CaoeFoQdI0Qj_f_3-20" value="Разработчики" style="shape=umlActor;verticalLabelPosition=bottom;verticalAlign=top;html=1;outlineConnect=0;fillColor=#FFFFFF;" vertex="1" parent="XEbBIGVeSjS7YvT_7zZj-1">
          <mxGeometry x="1494" y="30" width="30" height="60" as="geometry" />
        </mxCell>
        <mxCell id="kDm7CaoeFoQdI0Qj_f_3-22" value="Тестировщики" style="shape=umlActor;verticalLabelPosition=bottom;verticalAlign=top;html=1;outlineConnect=0;fillColor=#FFFFFF;" vertex="1" parent="XEbBIGVeSjS7YvT_7zZj-1">
          <mxGeometry x="1710" y="30" width="30" height="60" as="geometry" />
        </mxCell>
        <mxCell id="8kxkO7vDQeV7e-sTG1_3-0" value="" style="rounded=0;whiteSpace=wrap;html=1;fillColor=#FFFFFF;" vertex="1" parent="XEbBIGVeSjS7YvT_7zZj-1">
          <mxGeometry x="424" y="860" width="10" height="60" as="geometry" />
        </mxCell>
        <mxCell id="8kxkO7vDQeV7e-sTG1_3-1" style="edgeStyle=orthogonalEdgeStyle;rounded=0;orthogonalLoop=1;jettySize=auto;html=1;entryX=0;entryY=0.5;entryDx=0;entryDy=0;" edge="1" parent="XEbBIGVeSjS7YvT_7zZj-1" target="8kxkO7vDQeV7e-sTG1_3-3">
          <mxGeometry relative="1" as="geometry">
            <mxPoint x="434" y="890" as="sourcePoint" />
            <mxPoint x="855.5" y="890" as="targetPoint" />
          </mxGeometry>
        </mxCell>
        <mxCell id="8kxkO7vDQeV7e-sTG1_3-2" value="Составление договора и передача необходимой информации" style="text;html=1;strokeColor=none;fillColor=none;align=center;verticalAlign=middle;whiteSpace=wrap;rounded=0;" vertex="1" parent="XEbBIGVeSjS7YvT_7zZj-1">
          <mxGeometry x="684.5" y="870" width="353" height="20" as="geometry" />
        </mxCell>
        <mxCell id="8kxkO7vDQeV7e-sTG1_3-3" value="" style="rounded=0;whiteSpace=wrap;html=1;fillColor=#FFFFFF;" vertex="1" parent="XEbBIGVeSjS7YvT_7zZj-1">
          <mxGeometry x="1288" y="860" width="10" height="60" as="geometry" />
        </mxCell>
        <mxCell id="8kxkO7vDQeV7e-sTG1_3-8" style="edgeStyle=orthogonalEdgeStyle;rounded=0;orthogonalLoop=1;jettySize=auto;html=1;entryX=0;entryY=0.5;entryDx=0;entryDy=0;" edge="1" parent="XEbBIGVeSjS7YvT_7zZj-1" source="8kxkO7vDQeV7e-sTG1_3-4" target="8kxkO7vDQeV7e-sTG1_3-5">
          <mxGeometry relative="1" as="geometry" />
        </mxCell>
        <mxCell id="8kxkO7vDQeV7e-sTG1_3-4" value="" style="rounded=0;whiteSpace=wrap;html=1;fillColor=#FFFFFF;" vertex="1" parent="XEbBIGVeSjS7YvT_7zZj-1">
          <mxGeometry x="1288" y="120" width="10" height="60" as="geometry" />
        </mxCell>
        <mxCell id="8kxkO7vDQeV7e-sTG1_3-5" value="" style="rounded=0;whiteSpace=wrap;html=1;fillColor=#FFFFFF;" vertex="1" parent="XEbBIGVeSjS7YvT_7zZj-1">
          <mxGeometry x="1504" y="120" width="10" height="60" as="geometry" />
        </mxCell>
        <mxCell id="8kxkO7vDQeV7e-sTG1_3-9" style="edgeStyle=orthogonalEdgeStyle;rounded=0;orthogonalLoop=1;jettySize=auto;html=1;entryX=0;entryY=0.5;entryDx=0;entryDy=0;" edge="1" parent="XEbBIGVeSjS7YvT_7zZj-1" source="8kxkO7vDQeV7e-sTG1_3-6" target="8kxkO7vDQeV7e-sTG1_3-7">
          <mxGeometry relative="1" as="geometry" />
        </mxCell>
        <mxCell id="8kxkO7vDQeV7e-sTG1_3-6" value="" style="rounded=0;whiteSpace=wrap;html=1;fillColor=#FFFFFF;" vertex="1" parent="XEbBIGVeSjS7YvT_7zZj-1">
          <mxGeometry x="1288" y="200" width="10" height="60" as="geometry" />
        </mxCell>
        <mxCell id="8kxkO7vDQeV7e-sTG1_3-7" value="" style="rounded=0;whiteSpace=wrap;html=1;fillColor=#FFFFFF;" vertex="1" parent="XEbBIGVeSjS7YvT_7zZj-1">
          <mxGeometry x="1720" y="200" width="10" height="60" as="geometry" />
        </mxCell>
        <mxCell id="8kxkO7vDQeV7e-sTG1_3-10" value="Тз и план разработки" style="text;html=1;strokeColor=none;fillColor=none;align=center;verticalAlign=middle;whiteSpace=wrap;rounded=0;" vertex="1" parent="XEbBIGVeSjS7YvT_7zZj-1">
          <mxGeometry x="1330" y="130" width="156" height="20" as="geometry" />
        </mxCell>
        <mxCell id="8kxkO7vDQeV7e-sTG1_3-11" value="Тз и план разработки" style="text;html=1;strokeColor=none;fillColor=none;align=center;verticalAlign=middle;whiteSpace=wrap;rounded=0;" vertex="1" parent="XEbBIGVeSjS7YvT_7zZj-1">
          <mxGeometry x="1431" y="210" width="156" height="20" as="geometry" />
        </mxCell>
        <mxCell id="8kxkO7vDQeV7e-sTG1_3-14" style="edgeStyle=orthogonalEdgeStyle;rounded=0;orthogonalLoop=1;jettySize=auto;html=1;entryX=0;entryY=0.5;entryDx=0;entryDy=0;" edge="1" parent="XEbBIGVeSjS7YvT_7zZj-1" source="8kxkO7vDQeV7e-sTG1_3-12" target="8kxkO7vDQeV7e-sTG1_3-13">
          <mxGeometry relative="1" as="geometry" />
        </mxCell>
        <mxCell id="8kxkO7vDQeV7e-sTG1_3-12" value="" style="rounded=0;whiteSpace=wrap;html=1;fillColor=#FFFFFF;" vertex="1" parent="XEbBIGVeSjS7YvT_7zZj-1">
          <mxGeometry x="1504" y="570" width="10" height="60" as="geometry" />
        </mxCell>
        <mxCell id="8kxkO7vDQeV7e-sTG1_3-13" value="" style="rounded=0;whiteSpace=wrap;html=1;fillColor=#FFFFFF;" vertex="1" parent="XEbBIGVeSjS7YvT_7zZj-1">
          <mxGeometry x="1720" y="570" width="10" height="60" as="geometry" />
        </mxCell>
        <mxCell id="8kxkO7vDQeV7e-sTG1_3-15" value="Промежуточный продукт" style="text;html=1;strokeColor=none;fillColor=none;align=center;verticalAlign=middle;whiteSpace=wrap;rounded=0;" vertex="1" parent="XEbBIGVeSjS7YvT_7zZj-1">
          <mxGeometry x="1540" y="575" width="156" height="20" as="geometry" />
        </mxCell>
        <mxCell id="8kxkO7vDQeV7e-sTG1_3-18" style="edgeStyle=orthogonalEdgeStyle;rounded=0;orthogonalLoop=1;jettySize=auto;html=1;entryX=1;entryY=0.5;entryDx=0;entryDy=0;" edge="1" parent="XEbBIGVeSjS7YvT_7zZj-1" source="8kxkO7vDQeV7e-sTG1_3-16" target="8kxkO7vDQeV7e-sTG1_3-17">
          <mxGeometry relative="1" as="geometry" />
        </mxCell>
        <mxCell id="8kxkO7vDQeV7e-sTG1_3-16" value="" style="rounded=0;whiteSpace=wrap;html=1;fillColor=#FFFFFF;" vertex="1" parent="XEbBIGVeSjS7YvT_7zZj-1">
          <mxGeometry x="1720" y="700" width="10" height="60" as="geometry" />
        </mxCell>
        <mxCell id="8kxkO7vDQeV7e-sTG1_3-17" value="" style="rounded=0;whiteSpace=wrap;html=1;fillColor=#FFFFFF;" vertex="1" parent="XEbBIGVeSjS7YvT_7zZj-1">
          <mxGeometry x="1504" y="700" width="10" height="60" as="geometry" />
        </mxCell>
        <mxCell id="8kxkO7vDQeV7e-sTG1_3-19" value="Результаты тестирования" style="text;html=1;strokeColor=none;fillColor=none;align=center;verticalAlign=middle;whiteSpace=wrap;rounded=0;" vertex="1" parent="XEbBIGVeSjS7YvT_7zZj-1">
          <mxGeometry x="1540" y="710" width="156" height="20" as="geometry" />
        </mxCell>
        <mxCell id="8kxkO7vDQeV7e-sTG1_3-22" style="edgeStyle=orthogonalEdgeStyle;rounded=0;orthogonalLoop=1;jettySize=auto;html=1;" edge="1" parent="XEbBIGVeSjS7YvT_7zZj-1" source="8kxkO7vDQeV7e-sTG1_3-20" target="8kxkO7vDQeV7e-sTG1_3-21">
          <mxGeometry relative="1" as="geometry" />
        </mxCell>
        <mxCell id="8kxkO7vDQeV7e-sTG1_3-20" value="" style="rounded=0;whiteSpace=wrap;html=1;fillColor=#FFFFFF;" vertex="1" parent="XEbBIGVeSjS7YvT_7zZj-1">
          <mxGeometry x="1504" y="1100" width="10" height="60" as="geometry" />
        </mxCell>
        <mxCell id="8kxkO7vDQeV7e-sTG1_3-21" value="" style="rounded=0;whiteSpace=wrap;html=1;fillColor=#FFFFFF;" vertex="1" parent="XEbBIGVeSjS7YvT_7zZj-1">
          <mxGeometry x="1288" y="1100" width="10" height="60" as="geometry" />
        </mxCell>
        <mxCell id="8kxkO7vDQeV7e-sTG1_3-23" value="Передача готового продукта" style="text;html=1;strokeColor=none;fillColor=none;align=center;verticalAlign=middle;whiteSpace=wrap;rounded=0;" vertex="1" parent="XEbBIGVeSjS7YvT_7zZj-1">
          <mxGeometry x="1314" y="1110" width="180" height="20" as="geometry" />
        </mxCell>
        <mxCell id="8kxkO7vDQeV7e-sTG1_3-26" style="edgeStyle=orthogonalEdgeStyle;rounded=0;orthogonalLoop=1;jettySize=auto;html=1;entryX=1;entryY=0.5;entryDx=0;entryDy=0;" edge="1" parent="XEbBIGVeSjS7YvT_7zZj-1" source="8kxkO7vDQeV7e-sTG1_3-24" target="8kxkO7vDQeV7e-sTG1_3-25">
          <mxGeometry relative="1" as="geometry" />
        </mxCell>
        <mxCell id="8kxkO7vDQeV7e-sTG1_3-24" value="" style="rounded=0;whiteSpace=wrap;html=1;fillColor=#FFFFFF;" vertex="1" parent="XEbBIGVeSjS7YvT_7zZj-1">
          <mxGeometry x="1288" y="1190" width="10" height="60" as="geometry" />
        </mxCell>
        <mxCell id="8kxkO7vDQeV7e-sTG1_3-25" value="" style="rounded=0;whiteSpace=wrap;html=1;fillColor=#FFFFFF;" vertex="1" parent="XEbBIGVeSjS7YvT_7zZj-1">
          <mxGeometry x="90.5" y="1190" width="10" height="60" as="geometry" />
        </mxCell>
        <mxCell id="8kxkO7vDQeV7e-sTG1_3-27" value="Предоставление готовой работы" style="text;html=1;strokeColor=none;fillColor=none;align=center;verticalAlign=middle;whiteSpace=wrap;rounded=0;" vertex="1" parent="XEbBIGVeSjS7YvT_7zZj-1">
          <mxGeometry x="600" y="1200" width="191.5" height="20" as="geometry" />
        </mxCell>
        <mxCell id="8kxkO7vDQeV7e-sTG1_3-28" value="" style="endArrow=none;dashed=1;html=1;entryX=0.5;entryY=1;entryDx=0;entryDy=0;exitX=0.5;exitY=0;exitDx=0;exitDy=0;" edge="1" parent="XEbBIGVeSjS7YvT_7zZj-1" source="8kxkO7vDQeV7e-sTG1_3-25" target="kDm7CaoeFoQdI0Qj_f_3-14">
          <mxGeometry width="50" height="50" relative="1" as="geometry">
            <mxPoint x="190" y="1140" as="sourcePoint" />
            <mxPoint x="240" y="1090" as="targetPoint" />
          </mxGeometry>
        </mxCell>
        <mxCell id="8kxkO7vDQeV7e-sTG1_3-29" value="" style="endArrow=none;dashed=1;html=1;entryX=0.5;entryY=1;entryDx=0;entryDy=0;" edge="1" parent="XEbBIGVeSjS7YvT_7zZj-1" target="8kxkO7vDQeV7e-sTG1_3-25">
          <mxGeometry width="50" height="50" relative="1" as="geometry">
            <mxPoint x="96" y="1320" as="sourcePoint" />
            <mxPoint x="270" y="1200" as="targetPoint" />
          </mxGeometry>
        </mxCell>
        <mxCell id="8kxkO7vDQeV7e-sTG1_3-31" value="" style="endArrow=none;dashed=1;html=1;exitX=0.5;exitY=0;exitDx=0;exitDy=0;" edge="1" parent="XEbBIGVeSjS7YvT_7zZj-1" source="XEbBIGVeSjS7YvT_7zZj-11">
          <mxGeometry width="50" height="50" relative="1" as="geometry">
            <mxPoint x="424.5000000000001" y="120" as="sourcePoint" />
            <mxPoint x="429" y="110" as="targetPoint" />
          </mxGeometry>
        </mxCell>
        <mxCell id="8kxkO7vDQeV7e-sTG1_3-32" value="" style="endArrow=none;dashed=1;html=1;entryX=0.5;entryY=1;entryDx=0;entryDy=0;exitX=0.5;exitY=0;exitDx=0;exitDy=0;" edge="1" parent="XEbBIGVeSjS7YvT_7zZj-1" source="XEbBIGVeSjS7YvT_7zZj-14" target="XEbBIGVeSjS7YvT_7zZj-11">
          <mxGeometry width="50" height="50" relative="1" as="geometry">
            <mxPoint x="380" y="320" as="sourcePoint" />
            <mxPoint x="430" y="270" as="targetPoint" />
          </mxGeometry>
        </mxCell>
        <mxCell id="8kxkO7vDQeV7e-sTG1_3-33" value="" style="endArrow=none;dashed=1;html=1;entryX=0.5;entryY=1;entryDx=0;entryDy=0;exitX=0.5;exitY=0;exitDx=0;exitDy=0;" edge="1" parent="XEbBIGVeSjS7YvT_7zZj-1">
          <mxGeometry width="50" height="50" relative="1" as="geometry">
            <mxPoint x="428.86" y="370" as="sourcePoint" />
            <mxPoint x="428.86" y="350" as="targetPoint" />
          </mxGeometry>
        </mxCell>
        <mxCell id="8kxkO7vDQeV7e-sTG1_3-34" value="" style="endArrow=none;dashed=1;html=1;entryX=0.5;entryY=1;entryDx=0;entryDy=0;exitX=0.5;exitY=0;exitDx=0;exitDy=0;" edge="1" parent="XEbBIGVeSjS7YvT_7zZj-1">
          <mxGeometry width="50" height="50" relative="1" as="geometry">
            <mxPoint x="429.36" y="450" as="sourcePoint" />
            <mxPoint x="429.36" y="430" as="targetPoint" />
          </mxGeometry>
        </mxCell>
        <mxCell id="8kxkO7vDQeV7e-sTG1_3-35" value="" style="endArrow=none;dashed=1;html=1;" edge="1" parent="XEbBIGVeSjS7YvT_7zZj-1">
          <mxGeometry width="50" height="50" relative="1" as="geometry">
            <mxPoint x="429" y="698" as="sourcePoint" />
            <mxPoint x="429" y="510" as="targetPoint" />
          </mxGeometry>
        </mxCell>
        <mxCell id="8kxkO7vDQeV7e-sTG1_3-36" value="" style="endArrow=none;dashed=1;html=1;entryX=0.5;entryY=1;entryDx=0;entryDy=0;exitX=0.5;exitY=0;exitDx=0;exitDy=0;" edge="1" parent="XEbBIGVeSjS7YvT_7zZj-1">
          <mxGeometry width="50" height="50" relative="1" as="geometry">
            <mxPoint x="428.86" y="780" as="sourcePoint" />
            <mxPoint x="428.86" y="760" as="targetPoint" />
          </mxGeometry>
        </mxCell>
        <mxCell id="8kxkO7vDQeV7e-sTG1_3-37" value="" style="endArrow=none;dashed=1;html=1;entryX=0.5;entryY=1;entryDx=0;entryDy=0;exitX=0.5;exitY=0;exitDx=0;exitDy=0;" edge="1" parent="XEbBIGVeSjS7YvT_7zZj-1">
          <mxGeometry width="50" height="50" relative="1" as="geometry">
            <mxPoint x="429.3600000000001" y="860" as="sourcePoint" />
            <mxPoint x="429.3600000000001" y="840" as="targetPoint" />
          </mxGeometry>
        </mxCell>
        <mxCell id="8kxkO7vDQeV7e-sTG1_3-38" value="" style="endArrow=none;dashed=1;html=1;entryX=0.5;entryY=1;entryDx=0;entryDy=0;" edge="1" parent="XEbBIGVeSjS7YvT_7zZj-1">
          <mxGeometry width="50" height="50" relative="1" as="geometry">
            <mxPoint x="429" y="1320.8333333333333" as="sourcePoint" />
            <mxPoint x="428.8600000000001" y="920" as="targetPoint" />
          </mxGeometry>
        </mxCell>
        <mxCell id="8kxkO7vDQeV7e-sTG1_3-39" value="" style="endArrow=none;dashed=1;html=1;exitX=0.5;exitY=0;exitDx=0;exitDy=0;" edge="1" parent="XEbBIGVeSjS7YvT_7zZj-1" source="XEbBIGVeSjS7YvT_7zZj-25">
          <mxGeometry width="50" height="50" relative="1" as="geometry">
            <mxPoint x="644.86" y="210" as="sourcePoint" />
            <mxPoint x="644.86" y="110" as="targetPoint" />
          </mxGeometry>
        </mxCell>
        <mxCell id="8kxkO7vDQeV7e-sTG1_3-40" value="" style="endArrow=none;dashed=1;html=1;exitX=0.5;exitY=0;exitDx=0;exitDy=0;" edge="1" parent="XEbBIGVeSjS7YvT_7zZj-1">
          <mxGeometry width="50" height="50" relative="1" as="geometry">
            <mxPoint x="644.8600000000001" y="525" as="sourcePoint" />
            <mxPoint x="645" y="510" as="targetPoint" />
          </mxGeometry>
        </mxCell>
        <mxCell id="8kxkO7vDQeV7e-sTG1_3-41" value="" style="endArrow=none;dashed=1;html=1;exitX=0.495;exitY=-0.032;exitDx=0;exitDy=0;exitPerimeter=0;" edge="1" parent="XEbBIGVeSjS7YvT_7zZj-1" source="cJ8uqvKM2srsgwgLhjwL-5">
          <mxGeometry width="50" height="50" relative="1" as="geometry">
            <mxPoint x="644.8600000000001" y="600" as="sourcePoint" />
            <mxPoint x="645" y="585" as="targetPoint" />
          </mxGeometry>
        </mxCell>
        <mxCell id="8kxkO7vDQeV7e-sTG1_3-42" value="" style="endArrow=none;dashed=1;html=1;exitX=0.5;exitY=0;exitDx=0;exitDy=0;" edge="1" parent="XEbBIGVeSjS7YvT_7zZj-1" source="0Imysz43TrLlRYimRzio-0">
          <mxGeometry width="50" height="50" relative="1" as="geometry">
            <mxPoint x="644.8800000000001" y="685" as="sourcePoint" />
            <mxPoint x="645.02" y="670" as="targetPoint" />
          </mxGeometry>
        </mxCell>
        <mxCell id="8kxkO7vDQeV7e-sTG1_3-43" value="" style="endArrow=none;dashed=1;html=1;" edge="1" parent="XEbBIGVeSjS7YvT_7zZj-1">
          <mxGeometry width="50" height="50" relative="1" as="geometry">
            <mxPoint x="645" y="1320.6976744186047" as="sourcePoint" />
            <mxPoint x="644.88" y="760" as="targetPoint" />
          </mxGeometry>
        </mxCell>
        <mxCell id="8kxkO7vDQeV7e-sTG1_3-44" value="" style="endArrow=none;dashed=1;html=1;exitX=0.5;exitY=0;exitDx=0;exitDy=0;" edge="1" parent="XEbBIGVeSjS7YvT_7zZj-1" source="6LE_w9hveSRhjaUEb_eX-3">
          <mxGeometry width="50" height="50" relative="1" as="geometry">
            <mxPoint x="860.8" y="520" as="sourcePoint" />
            <mxPoint x="860.6600000000001" y="179.9999999999999" as="targetPoint" />
          </mxGeometry>
        </mxCell>
        <mxCell id="8kxkO7vDQeV7e-sTG1_3-45" value="" style="endArrow=none;dashed=1;html=1;" edge="1" parent="XEbBIGVeSjS7YvT_7zZj-1">
          <mxGeometry width="50" height="50" relative="1" as="geometry">
            <mxPoint x="860.8599999999999" y="120" as="sourcePoint" />
            <mxPoint x="861.11" y="110" as="targetPoint" />
          </mxGeometry>
        </mxCell>
        <mxCell id="8kxkO7vDQeV7e-sTG1_3-47" value="" style="endArrow=none;dashed=1;html=1;exitX=0.5;exitY=0;exitDx=0;exitDy=0;" edge="1" parent="XEbBIGVeSjS7YvT_7zZj-1" source="0Imysz43TrLlRYimRzio-5">
          <mxGeometry width="50" height="50" relative="1" as="geometry">
            <mxPoint x="860.86" y="940" as="sourcePoint" />
            <mxPoint x="860.86" y="840" as="targetPoint" />
          </mxGeometry>
        </mxCell>
        <mxCell id="8kxkO7vDQeV7e-sTG1_3-48" value="" style="endArrow=none;dashed=1;html=1;" edge="1" parent="XEbBIGVeSjS7YvT_7zZj-1">
          <mxGeometry width="50" height="50" relative="1" as="geometry">
            <mxPoint x="861" y="1000" as="sourcePoint" />
            <mxPoint x="860.88" y="980" as="targetPoint" />
          </mxGeometry>
        </mxCell>
        <mxCell id="8kxkO7vDQeV7e-sTG1_3-49" value="" style="endArrow=none;dashed=1;html=1;" edge="1" parent="XEbBIGVeSjS7YvT_7zZj-1">
          <mxGeometry width="50" height="50" relative="1" as="geometry">
            <mxPoint x="861" y="1320" as="sourcePoint" />
            <mxPoint x="860.8000000000003" y="1060" as="targetPoint" />
          </mxGeometry>
        </mxCell>
        <mxCell id="8kxkO7vDQeV7e-sTG1_3-50" value="" style="endArrow=none;dashed=1;html=1;" edge="1" parent="XEbBIGVeSjS7YvT_7zZj-1">
          <mxGeometry width="50" height="50" relative="1" as="geometry">
            <mxPoint x="1076.8799999999999" y="120" as="sourcePoint" />
            <mxPoint x="1077.13" y="110" as="targetPoint" />
          </mxGeometry>
        </mxCell>
        <mxCell id="8kxkO7vDQeV7e-sTG1_3-51" value="" style="endArrow=none;dashed=1;html=1;" edge="1" parent="XEbBIGVeSjS7YvT_7zZj-1" source="kDm7CaoeFoQdI0Qj_f_3-8">
          <mxGeometry width="50" height="50" relative="1" as="geometry">
            <mxPoint x="1077.17" y="780" as="sourcePoint" />
            <mxPoint x="1076.8300000000002" y="179.9999999999999" as="targetPoint" />
          </mxGeometry>
        </mxCell>
        <mxCell id="8kxkO7vDQeV7e-sTG1_3-52" value="" style="endArrow=none;dashed=1;html=1;" edge="1" parent="XEbBIGVeSjS7YvT_7zZj-1">
          <mxGeometry width="50" height="50" relative="1" as="geometry">
            <mxPoint x="1077" y="1320" as="sourcePoint" />
            <mxPoint x="1076.8600000000001" y="980" as="targetPoint" />
          </mxGeometry>
        </mxCell>
        <mxCell id="8kxkO7vDQeV7e-sTG1_3-53" value="" style="endArrow=none;dashed=1;html=1;" edge="1" parent="XEbBIGVeSjS7YvT_7zZj-1">
          <mxGeometry width="50" height="50" relative="1" as="geometry">
            <mxPoint x="1292.86" y="120" as="sourcePoint" />
            <mxPoint x="1293.1100000000001" y="110" as="targetPoint" />
          </mxGeometry>
        </mxCell>
        <mxCell id="8kxkO7vDQeV7e-sTG1_3-54" value="" style="endArrow=none;dashed=1;html=1;exitX=0.5;exitY=0;exitDx=0;exitDy=0;" edge="1" parent="XEbBIGVeSjS7YvT_7zZj-1" source="8kxkO7vDQeV7e-sTG1_3-6">
          <mxGeometry width="50" height="50" relative="1" as="geometry">
            <mxPoint x="1292.86" y="190" as="sourcePoint" />
            <mxPoint x="1293.1100000000001" y="180" as="targetPoint" />
          </mxGeometry>
        </mxCell>
        <mxCell id="8kxkO7vDQeV7e-sTG1_3-56" value="" style="endArrow=none;dashed=1;html=1;exitX=0.5;exitY=0;exitDx=0;exitDy=0;" edge="1" parent="XEbBIGVeSjS7YvT_7zZj-1" source="8kxkO7vDQeV7e-sTG1_3-3">
          <mxGeometry width="50" height="50" relative="1" as="geometry">
            <mxPoint x="1293.0233766233766" y="1000" as="sourcePoint" />
            <mxPoint x="1292.8600000000001" y="259.9999999999999" as="targetPoint" />
          </mxGeometry>
        </mxCell>
        <mxCell id="8kxkO7vDQeV7e-sTG1_3-57" value="" style="endArrow=none;dashed=1;html=1;" edge="1" parent="XEbBIGVeSjS7YvT_7zZj-1">
          <mxGeometry width="50" height="50" relative="1" as="geometry">
            <mxPoint x="1293" y="1100" as="sourcePoint" />
            <mxPoint x="1292.8600000000001" y="920" as="targetPoint" />
          </mxGeometry>
        </mxCell>
        <mxCell id="8kxkO7vDQeV7e-sTG1_3-58" value="" style="endArrow=none;dashed=1;html=1;" edge="1" parent="XEbBIGVeSjS7YvT_7zZj-1">
          <mxGeometry width="50" height="50" relative="1" as="geometry">
            <mxPoint x="1293" y="1190" as="sourcePoint" />
            <mxPoint x="1292.8600000000001" y="1160" as="targetPoint" />
          </mxGeometry>
        </mxCell>
        <mxCell id="8kxkO7vDQeV7e-sTG1_3-59" value="" style="endArrow=none;dashed=1;html=1;" edge="1" parent="XEbBIGVeSjS7YvT_7zZj-1">
          <mxGeometry width="50" height="50" relative="1" as="geometry">
            <mxPoint x="1293" y="1320" as="sourcePoint" />
            <mxPoint x="1292.8600000000001" y="1250" as="targetPoint" />
          </mxGeometry>
        </mxCell>
        <mxCell id="8kxkO7vDQeV7e-sTG1_3-61" value="" style="endArrow=none;dashed=1;html=1;" edge="1" parent="XEbBIGVeSjS7YvT_7zZj-1">
          <mxGeometry width="50" height="50" relative="1" as="geometry">
            <mxPoint x="1508.87" y="120" as="sourcePoint" />
            <mxPoint x="1509.1200000000001" y="110" as="targetPoint" />
          </mxGeometry>
        </mxCell>
        <mxCell id="8kxkO7vDQeV7e-sTG1_3-63" value="" style="endArrow=none;dashed=1;html=1;exitX=0.5;exitY=0;exitDx=0;exitDy=0;" edge="1" parent="XEbBIGVeSjS7YvT_7zZj-1" source="8kxkO7vDQeV7e-sTG1_3-7">
          <mxGeometry width="50" height="50" relative="1" as="geometry">
            <mxPoint x="1724.88" y="130" as="sourcePoint" />
            <mxPoint x="1724.9900000000002" y="110" as="targetPoint" />
          </mxGeometry>
        </mxCell>
        <mxCell id="8kxkO7vDQeV7e-sTG1_3-64" value="" style="endArrow=none;dashed=1;html=1;" edge="1" parent="XEbBIGVeSjS7YvT_7zZj-1" source="8kxkO7vDQeV7e-sTG1_3-13">
          <mxGeometry width="50" height="50" relative="1" as="geometry">
            <mxPoint x="1724.8" y="476.4" as="sourcePoint" />
            <mxPoint x="1724.8" y="260" as="targetPoint" />
          </mxGeometry>
        </mxCell>
        <mxCell id="8kxkO7vDQeV7e-sTG1_3-65" value="" style="endArrow=none;dashed=1;html=1;" edge="1" parent="XEbBIGVeSjS7YvT_7zZj-1" source="8kxkO7vDQeV7e-sTG1_3-12">
          <mxGeometry width="50" height="50" relative="1" as="geometry">
            <mxPoint x="1508.9823529411765" y="490" as="sourcePoint" />
            <mxPoint x="1508.8000000000002" y="180" as="targetPoint" />
          </mxGeometry>
        </mxCell>
        <mxCell id="8kxkO7vDQeV7e-sTG1_3-67" value="" style="endArrow=none;dashed=1;html=1;" edge="1" parent="XEbBIGVeSjS7YvT_7zZj-1">
          <mxGeometry width="50" height="50" relative="1" as="geometry">
            <mxPoint x="1509" y="700" as="sourcePoint" />
            <mxPoint x="1508.8000000000002" y="630" as="targetPoint" />
          </mxGeometry>
        </mxCell>
        <mxCell id="8kxkO7vDQeV7e-sTG1_3-68" value="" style="endArrow=none;dashed=1;html=1;" edge="1" parent="XEbBIGVeSjS7YvT_7zZj-1">
          <mxGeometry width="50" height="50" relative="1" as="geometry">
            <mxPoint x="1725" y="700" as="sourcePoint" />
            <mxPoint x="1724.8000000000002" y="630" as="targetPoint" />
          </mxGeometry>
        </mxCell>
        <mxCell id="8kxkO7vDQeV7e-sTG1_3-69" value="" style="endArrow=none;dashed=1;html=1;" edge="1" parent="XEbBIGVeSjS7YvT_7zZj-1" source="8kxkO7vDQeV7e-sTG1_3-20">
          <mxGeometry width="50" height="50" relative="1" as="geometry">
            <mxPoint x="1508.85" y="940" as="sourcePoint" />
            <mxPoint x="1508.71" y="760" as="targetPoint" />
          </mxGeometry>
        </mxCell>
        <mxCell id="8kxkO7vDQeV7e-sTG1_3-70" value="" style="endArrow=none;dashed=1;html=1;" edge="1" parent="XEbBIGVeSjS7YvT_7zZj-1">
          <mxGeometry width="50" height="50" relative="1" as="geometry">
            <mxPoint x="1508" y="1320" as="sourcePoint" />
            <mxPoint x="1508.71" y="1160" as="targetPoint" />
          </mxGeometry>
        </mxCell>
        <mxCell id="8kxkO7vDQeV7e-sTG1_3-71" value="" style="endArrow=none;dashed=1;html=1;fontStyle=1" edge="1" parent="XEbBIGVeSjS7YvT_7zZj-1">
          <mxGeometry width="50" height="50" relative="1" as="geometry">
            <mxPoint x="1724" y="1320" as="sourcePoint" />
            <mxPoint x="1724.71" y="760" as="targetPoint" />
          </mxGeometry>
        </mxCell>
      </root>
    </mxGraphModel>
  </diagram>
  <diagram id="7RWAjElROsd0nvW-rtzL" name="Диаграмму классов">
    <mxGraphModel dx="825" dy="447" grid="1" gridSize="10" guides="1" tooltips="1" connect="1" arrows="1" fold="1" page="1" pageScale="1" pageWidth="827" pageHeight="1169" math="0" shadow="0">
      <root>
        <mxCell id="H6lXii7zvQiPASxYohfn-0" />
        <mxCell id="H6lXii7zvQiPASxYohfn-1" parent="H6lXii7zvQiPASxYohfn-0" />
        <mxCell id="4c4BOsjA_uFQPLWinj6D-37" style="edgeStyle=orthogonalEdgeStyle;rounded=0;orthogonalLoop=1;jettySize=auto;html=1;entryX=0.998;entryY=0.333;entryDx=0;entryDy=0;entryPerimeter=0;" edge="1" parent="H6lXii7zvQiPASxYohfn-1" source="4c4BOsjA_uFQPLWinj6D-0" target="4c4BOsjA_uFQPLWinj6D-17">
          <mxGeometry relative="1" as="geometry" />
        </mxCell>
        <mxCell id="4c4BOsjA_uFQPLWinj6D-0" value="" style="rounded=0;whiteSpace=wrap;html=1;fillColor=#FFFFFF;" vertex="1" parent="H6lXii7zvQiPASxYohfn-1">
          <mxGeometry x="500.24" y="210" width="120" height="60" as="geometry" />
        </mxCell>
        <mxCell id="4c4BOsjA_uFQPLWinj6D-2" value="Клиент" style="text;html=1;strokeColor=none;fillColor=none;align=center;verticalAlign=middle;whiteSpace=wrap;rounded=0;" vertex="1" parent="H6lXii7zvQiPASxYohfn-1">
          <mxGeometry x="540.24" y="212" width="40" height="10" as="geometry" />
        </mxCell>
        <mxCell id="4c4BOsjA_uFQPLWinj6D-3" value="&lt;font style=&quot;font-size: 10px&quot;&gt;Номер договора&lt;/font&gt;" style="text;html=1;strokeColor=none;fillColor=none;align=center;verticalAlign=middle;whiteSpace=wrap;rounded=0;" vertex="1" parent="H6lXii7zvQiPASxYohfn-1">
          <mxGeometry x="502.24" y="234" width="82.5" height="10" as="geometry" />
        </mxCell>
        <mxCell id="4c4BOsjA_uFQPLWinj6D-4" value="&lt;font style=&quot;font-size: 10px&quot;&gt;Номер счета&lt;/font&gt;" style="text;html=1;strokeColor=none;fillColor=none;align=center;verticalAlign=middle;whiteSpace=wrap;rounded=0;" vertex="1" parent="H6lXii7zvQiPASxYohfn-1">
          <mxGeometry x="500.24" y="246" width="70" height="10" as="geometry" />
        </mxCell>
        <mxCell id="4c4BOsjA_uFQPLWinj6D-6" value="" style="endArrow=none;html=1;entryX=0.997;entryY=0.171;entryDx=0;entryDy=0;entryPerimeter=0;" edge="1" parent="H6lXii7zvQiPASxYohfn-1" source="4c4BOsjA_uFQPLWinj6D-0">
          <mxGeometry width="50" height="50" relative="1" as="geometry">
            <mxPoint x="500.9599999999999" y="260" as="sourcePoint" />
            <mxPoint x="620.24" y="260.2" as="targetPoint" />
          </mxGeometry>
        </mxCell>
        <mxCell id="4c4BOsjA_uFQPLWinj6D-8" value="" style="endArrow=none;html=1;exitX=-0.002;exitY=0.201;exitDx=0;exitDy=0;exitPerimeter=0;entryX=1;entryY=0.204;entryDx=0;entryDy=0;entryPerimeter=0;" edge="1" parent="H6lXii7zvQiPASxYohfn-1" source="4c4BOsjA_uFQPLWinj6D-0" target="4c4BOsjA_uFQPLWinj6D-0">
          <mxGeometry width="50" height="50" relative="1" as="geometry">
            <mxPoint x="570.24" y="270" as="sourcePoint" />
            <mxPoint x="620.24" y="220" as="targetPoint" />
          </mxGeometry>
        </mxCell>
        <mxCell id="4c4BOsjA_uFQPLWinj6D-9" value="" style="endArrow=none;html=1;exitX=-0.002;exitY=0.201;exitDx=0;exitDy=0;exitPerimeter=0;entryX=1;entryY=0.204;entryDx=0;entryDy=0;entryPerimeter=0;" edge="1" parent="H6lXii7zvQiPASxYohfn-1">
          <mxGeometry width="50" height="50" relative="1" as="geometry">
            <mxPoint x="500" y="260" as="sourcePoint" />
            <mxPoint x="620.24" y="260.18" as="targetPoint" />
          </mxGeometry>
        </mxCell>
        <mxCell id="4c4BOsjA_uFQPLWinj6D-10" value="" style="rounded=0;whiteSpace=wrap;html=1;fillColor=#FFFFFF;" vertex="1" parent="H6lXii7zvQiPASxYohfn-1">
          <mxGeometry x="349.91" y="115" width="120" height="70" as="geometry" />
        </mxCell>
        <mxCell id="4c4BOsjA_uFQPLWinj6D-11" value="Каталог услуг" style="text;html=1;strokeColor=none;fillColor=none;align=center;verticalAlign=middle;whiteSpace=wrap;rounded=0;" vertex="1" parent="H6lXii7zvQiPASxYohfn-1">
          <mxGeometry x="369.79" y="117" width="80.24" height="10" as="geometry" />
        </mxCell>
        <mxCell id="4c4BOsjA_uFQPLWinj6D-14" value="" style="endArrow=none;html=1;entryX=0.997;entryY=0.171;entryDx=0;entryDy=0;entryPerimeter=0;" edge="1" parent="H6lXii7zvQiPASxYohfn-1" source="4c4BOsjA_uFQPLWinj6D-10">
          <mxGeometry width="50" height="50" relative="1" as="geometry">
            <mxPoint x="350.62999999999994" y="165" as="sourcePoint" />
            <mxPoint x="469.91" y="165.2" as="targetPoint" />
          </mxGeometry>
        </mxCell>
        <mxCell id="4c4BOsjA_uFQPLWinj6D-15" value="" style="endArrow=none;html=1;exitX=-0.002;exitY=0.201;exitDx=0;exitDy=0;exitPerimeter=0;entryX=1;entryY=0.204;entryDx=0;entryDy=0;entryPerimeter=0;" edge="1" parent="H6lXii7zvQiPASxYohfn-1" source="4c4BOsjA_uFQPLWinj6D-10" target="4c4BOsjA_uFQPLWinj6D-10">
          <mxGeometry width="50" height="50" relative="1" as="geometry">
            <mxPoint x="419.91" y="175" as="sourcePoint" />
            <mxPoint x="469.91" y="125" as="targetPoint" />
          </mxGeometry>
        </mxCell>
        <mxCell id="4c4BOsjA_uFQPLWinj6D-16" value="" style="endArrow=none;html=1;exitX=-0.002;exitY=0.201;exitDx=0;exitDy=0;exitPerimeter=0;entryX=1;entryY=0.204;entryDx=0;entryDy=0;entryPerimeter=0;" edge="1" parent="H6lXii7zvQiPASxYohfn-1">
          <mxGeometry width="50" height="50" relative="1" as="geometry">
            <mxPoint x="349.91" y="135" as="sourcePoint" />
            <mxPoint x="470.15000000000003" y="135.18" as="targetPoint" />
          </mxGeometry>
        </mxCell>
        <mxCell id="4c4BOsjA_uFQPLWinj6D-17" value="" style="rounded=0;whiteSpace=wrap;html=1;fillColor=#FFFFFF;" vertex="1" parent="H6lXii7zvQiPASxYohfn-1">
          <mxGeometry x="280.6" y="250" width="120" height="60" as="geometry" />
        </mxCell>
        <mxCell id="4c4BOsjA_uFQPLWinj6D-18" value="Заказ услуги" style="text;html=1;strokeColor=none;fillColor=none;align=center;verticalAlign=middle;whiteSpace=wrap;rounded=0;" vertex="1" parent="H6lXii7zvQiPASxYohfn-1">
          <mxGeometry x="300.48" y="252" width="80.24" height="10" as="geometry" />
        </mxCell>
        <mxCell id="4c4BOsjA_uFQPLWinj6D-19" value="&lt;span style=&quot;font-size: 10px&quot;&gt;Описание услуги&lt;/span&gt;" style="text;html=1;strokeColor=none;fillColor=none;align=center;verticalAlign=middle;whiteSpace=wrap;rounded=0;" vertex="1" parent="H6lXii7zvQiPASxYohfn-1">
          <mxGeometry x="282.6" y="270" width="82.5" height="10" as="geometry" />
        </mxCell>
        <mxCell id="4c4BOsjA_uFQPLWinj6D-20" value="" style="endArrow=none;html=1;entryX=0.997;entryY=0.171;entryDx=0;entryDy=0;entryPerimeter=0;" edge="1" parent="H6lXii7zvQiPASxYohfn-1" source="4c4BOsjA_uFQPLWinj6D-17">
          <mxGeometry width="50" height="50" relative="1" as="geometry">
            <mxPoint x="281.31999999999994" y="300" as="sourcePoint" />
            <mxPoint x="400.59999999999997" y="300.20000000000005" as="targetPoint" />
          </mxGeometry>
        </mxCell>
        <mxCell id="4c4BOsjA_uFQPLWinj6D-21" value="" style="endArrow=none;html=1;exitX=-0.002;exitY=0.201;exitDx=0;exitDy=0;exitPerimeter=0;entryX=1;entryY=0.204;entryDx=0;entryDy=0;entryPerimeter=0;" edge="1" parent="H6lXii7zvQiPASxYohfn-1" source="4c4BOsjA_uFQPLWinj6D-17" target="4c4BOsjA_uFQPLWinj6D-17">
          <mxGeometry width="50" height="50" relative="1" as="geometry">
            <mxPoint x="350.6000000000001" y="310" as="sourcePoint" />
            <mxPoint x="400.59999999999997" y="260" as="targetPoint" />
          </mxGeometry>
        </mxCell>
        <mxCell id="4c4BOsjA_uFQPLWinj6D-22" value="" style="endArrow=none;html=1;exitX=-0.002;exitY=0.201;exitDx=0;exitDy=0;exitPerimeter=0;entryX=1;entryY=0.204;entryDx=0;entryDy=0;entryPerimeter=0;" edge="1" parent="H6lXii7zvQiPASxYohfn-1">
          <mxGeometry width="50" height="50" relative="1" as="geometry">
            <mxPoint x="280.6" y="290" as="sourcePoint" />
            <mxPoint x="400.84" y="290.18000000000006" as="targetPoint" />
          </mxGeometry>
        </mxCell>
        <mxCell id="4c4BOsjA_uFQPLWinj6D-23" value="&lt;font style=&quot;font-size: 10px&quot;&gt;ФИО&lt;/font&gt;" style="text;html=1;strokeColor=none;fillColor=none;align=center;verticalAlign=middle;whiteSpace=wrap;rounded=0;" vertex="1" parent="H6lXii7zvQiPASxYohfn-1">
          <mxGeometry x="502.24" y="222" width="27.76" height="10" as="geometry" />
        </mxCell>
        <mxCell id="4c4BOsjA_uFQPLWinj6D-36" style="edgeStyle=orthogonalEdgeStyle;rounded=0;orthogonalLoop=1;jettySize=auto;html=1;entryX=0;entryY=0.5;entryDx=0;entryDy=0;" edge="1" parent="H6lXii7zvQiPASxYohfn-1" source="4c4BOsjA_uFQPLWinj6D-24" target="4c4BOsjA_uFQPLWinj6D-10">
          <mxGeometry relative="1" as="geometry" />
        </mxCell>
        <mxCell id="4c4BOsjA_uFQPLWinj6D-39" style="edgeStyle=orthogonalEdgeStyle;rounded=0;orthogonalLoop=1;jettySize=auto;html=1;entryX=0;entryY=0.5;entryDx=0;entryDy=0;" edge="1" parent="H6lXii7zvQiPASxYohfn-1" source="4c4BOsjA_uFQPLWinj6D-24" target="4c4BOsjA_uFQPLWinj6D-17">
          <mxGeometry relative="1" as="geometry">
            <mxPoint x="280" y="280" as="targetPoint" />
            <Array as="points">
              <mxPoint x="240" y="239" />
              <mxPoint x="240" y="260" />
            </Array>
          </mxGeometry>
        </mxCell>
        <mxCell id="4c4BOsjA_uFQPLWinj6D-24" value="" style="rounded=0;whiteSpace=wrap;html=1;fillColor=#FFFFFF;" vertex="1" parent="H6lXii7zvQiPASxYohfn-1">
          <mxGeometry x="180.24" y="102" width="120" height="96" as="geometry" />
        </mxCell>
        <mxCell id="4c4BOsjA_uFQPLWinj6D-25" value="Услуга" style="text;html=1;strokeColor=none;fillColor=none;align=center;verticalAlign=middle;whiteSpace=wrap;rounded=0;" vertex="1" parent="H6lXii7zvQiPASxYohfn-1">
          <mxGeometry x="200.12" y="106" width="80.24" height="10" as="geometry" />
        </mxCell>
        <mxCell id="4c4BOsjA_uFQPLWinj6D-26" value="&lt;span style=&quot;font-size: 10px&quot;&gt;Код услуги&lt;/span&gt;" style="text;html=1;strokeColor=none;fillColor=none;align=center;verticalAlign=middle;whiteSpace=wrap;rounded=0;" vertex="1" parent="H6lXii7zvQiPASxYohfn-1">
          <mxGeometry x="182.24" y="130" width="57.76" height="10" as="geometry" />
        </mxCell>
        <mxCell id="4c4BOsjA_uFQPLWinj6D-27" value="" style="endArrow=none;html=1;entryX=0.997;entryY=0.171;entryDx=0;entryDy=0;entryPerimeter=0;" edge="1" parent="H6lXii7zvQiPASxYohfn-1" source="4c4BOsjA_uFQPLWinj6D-24">
          <mxGeometry width="50" height="50" relative="1" as="geometry">
            <mxPoint x="180.95999999999995" y="154" as="sourcePoint" />
            <mxPoint x="300.24" y="154.20000000000005" as="targetPoint" />
          </mxGeometry>
        </mxCell>
        <mxCell id="4c4BOsjA_uFQPLWinj6D-28" value="" style="endArrow=none;html=1;exitX=-0.002;exitY=0.201;exitDx=0;exitDy=0;exitPerimeter=0;entryX=1;entryY=0.204;entryDx=0;entryDy=0;entryPerimeter=0;" edge="1" parent="H6lXii7zvQiPASxYohfn-1" source="4c4BOsjA_uFQPLWinj6D-24" target="4c4BOsjA_uFQPLWinj6D-24">
          <mxGeometry width="50" height="50" relative="1" as="geometry">
            <mxPoint x="250.24" y="164" as="sourcePoint" />
            <mxPoint x="300.24" y="114" as="targetPoint" />
          </mxGeometry>
        </mxCell>
        <mxCell id="4c4BOsjA_uFQPLWinj6D-29" value="" style="endArrow=none;html=1;exitX=-0.002;exitY=0.201;exitDx=0;exitDy=0;exitPerimeter=0;entryX=1;entryY=0.204;entryDx=0;entryDy=0;entryPerimeter=0;" edge="1" parent="H6lXii7zvQiPASxYohfn-1">
          <mxGeometry width="50" height="50" relative="1" as="geometry">
            <mxPoint x="180" y="190" as="sourcePoint" />
            <mxPoint x="300.24" y="190.18000000000006" as="targetPoint" />
          </mxGeometry>
        </mxCell>
        <mxCell id="4c4BOsjA_uFQPLWinj6D-31" value="&lt;span style=&quot;font-size: 10px&quot;&gt;Время выполнение&lt;/span&gt;" style="text;html=1;strokeColor=none;fillColor=none;align=center;verticalAlign=middle;whiteSpace=wrap;rounded=0;" vertex="1" parent="H6lXii7zvQiPASxYohfn-1">
          <mxGeometry x="182.24" y="145" width="97.76" height="10" as="geometry" />
        </mxCell>
        <mxCell id="4c4BOsjA_uFQPLWinj6D-32" value="&lt;span style=&quot;font-size: 10px&quot;&gt;Стоимость&lt;/span&gt;" style="text;html=1;strokeColor=none;fillColor=none;align=center;verticalAlign=middle;whiteSpace=wrap;rounded=0;" vertex="1" parent="H6lXii7zvQiPASxYohfn-1">
          <mxGeometry x="182.24" y="160" width="57.4" height="10" as="geometry" />
        </mxCell>
        <mxCell id="4c4BOsjA_uFQPLWinj6D-33" value="&lt;span style=&quot;font-size: 10px&quot;&gt;Добавить услугу()&lt;/span&gt;" style="text;html=1;strokeColor=none;fillColor=none;align=center;verticalAlign=middle;whiteSpace=wrap;rounded=0;" vertex="1" parent="H6lXii7zvQiPASxYohfn-1">
          <mxGeometry x="349.91" y="135" width="89.76" height="10" as="geometry" />
        </mxCell>
        <mxCell id="4c4BOsjA_uFQPLWinj6D-34" value="&lt;span style=&quot;font-size: 10px&quot;&gt;Удалить услугу()&lt;/span&gt;" style="text;html=1;strokeColor=none;fillColor=none;align=center;verticalAlign=middle;whiteSpace=wrap;rounded=0;" vertex="1" parent="H6lXii7zvQiPASxYohfn-1">
          <mxGeometry x="351.67" y="150" width="80" height="10" as="geometry" />
        </mxCell>
        <mxCell id="4c4BOsjA_uFQPLWinj6D-35" value="&lt;span style=&quot;font-size: 10px&quot;&gt;Изменить услугу()&lt;/span&gt;" style="text;html=1;strokeColor=none;fillColor=none;align=center;verticalAlign=middle;whiteSpace=wrap;rounded=0;" vertex="1" parent="H6lXii7zvQiPASxYohfn-1">
          <mxGeometry x="349.91" y="165" width="89.76" height="10" as="geometry" />
        </mxCell>
        <mxCell id="4c4BOsjA_uFQPLWinj6D-48" style="edgeStyle=orthogonalEdgeStyle;rounded=0;orthogonalLoop=1;jettySize=auto;html=1;entryX=0;entryY=0.5;entryDx=0;entryDy=0;" edge="1" parent="H6lXii7zvQiPASxYohfn-1" source="4c4BOsjA_uFQPLWinj6D-40" target="4c4BOsjA_uFQPLWinj6D-24">
          <mxGeometry relative="1" as="geometry" />
        </mxCell>
        <mxCell id="4c4BOsjA_uFQPLWinj6D-40" value="" style="rounded=0;whiteSpace=wrap;html=1;fillColor=#FFFFFF;" vertex="1" parent="H6lXii7zvQiPASxYohfn-1">
          <mxGeometry x="22.24000000000001" y="102" width="120" height="96" as="geometry" />
        </mxCell>
        <mxCell id="4c4BOsjA_uFQPLWinj6D-41" value="Описание услуги" style="text;html=1;strokeColor=none;fillColor=none;align=center;verticalAlign=middle;whiteSpace=wrap;rounded=0;" vertex="1" parent="H6lXii7zvQiPASxYohfn-1">
          <mxGeometry x="30.060000000000002" y="107" width="100.36" height="10" as="geometry" />
        </mxCell>
        <mxCell id="4c4BOsjA_uFQPLWinj6D-42" value="&lt;span style=&quot;font-size: 10px&quot;&gt;Описание&lt;/span&gt;" style="text;html=1;strokeColor=none;fillColor=none;align=center;verticalAlign=middle;whiteSpace=wrap;rounded=0;" vertex="1" parent="H6lXii7zvQiPASxYohfn-1">
          <mxGeometry x="22.24000000000001" y="130" width="57.76" height="10" as="geometry" />
        </mxCell>
        <mxCell id="4c4BOsjA_uFQPLWinj6D-44" value="" style="endArrow=none;html=1;exitX=-0.002;exitY=0.201;exitDx=0;exitDy=0;exitPerimeter=0;entryX=1;entryY=0.204;entryDx=0;entryDy=0;entryPerimeter=0;" edge="1" parent="H6lXii7zvQiPASxYohfn-1" source="4c4BOsjA_uFQPLWinj6D-40" target="4c4BOsjA_uFQPLWinj6D-40">
          <mxGeometry width="50" height="50" relative="1" as="geometry">
            <mxPoint x="90.24000000000001" y="164" as="sourcePoint" />
            <mxPoint x="140.24" y="114" as="targetPoint" />
          </mxGeometry>
        </mxCell>
        <mxCell id="4c4BOsjA_uFQPLWinj6D-45" value="" style="endArrow=none;html=1;exitX=-0.002;exitY=0.201;exitDx=0;exitDy=0;exitPerimeter=0;entryX=1;entryY=0.204;entryDx=0;entryDy=0;entryPerimeter=0;" edge="1" parent="H6lXii7zvQiPASxYohfn-1">
          <mxGeometry width="50" height="50" relative="1" as="geometry">
            <mxPoint x="22" y="144.82" as="sourcePoint" />
            <mxPoint x="142.24" y="145.00000000000006" as="targetPoint" />
          </mxGeometry>
        </mxCell>
        <mxCell id="4c4BOsjA_uFQPLWinj6D-49" value="&lt;span style=&quot;font-size: 10px&quot;&gt;Добавить описание()&lt;/span&gt;" style="text;html=1;strokeColor=none;fillColor=none;align=center;verticalAlign=middle;whiteSpace=wrap;rounded=0;" vertex="1" parent="H6lXii7zvQiPASxYohfn-1">
          <mxGeometry x="23" y="150" width="106" height="10" as="geometry" />
        </mxCell>
        <mxCell id="4c4BOsjA_uFQPLWinj6D-50" value="&lt;span style=&quot;font-size: 10px&quot;&gt;Изменить описание()&lt;/span&gt;" style="text;html=1;strokeColor=none;fillColor=none;align=center;verticalAlign=middle;whiteSpace=wrap;rounded=0;" vertex="1" parent="H6lXii7zvQiPASxYohfn-1">
          <mxGeometry x="22.239999999999995" y="165" width="107.76" height="10" as="geometry" />
        </mxCell>
        <mxCell id="4c4BOsjA_uFQPLWinj6D-51" value="&lt;span style=&quot;font-size: 10px&quot;&gt;Удалить описание()&lt;/span&gt;" style="text;html=1;strokeColor=none;fillColor=none;align=center;verticalAlign=middle;whiteSpace=wrap;rounded=0;" vertex="1" parent="H6lXii7zvQiPASxYohfn-1">
          <mxGeometry x="23" y="180" width="100" height="10" as="geometry" />
        </mxCell>
        <mxCell id="4c4BOsjA_uFQPLWinj6D-52" value="&lt;span style=&quot;font-size: 10px&quot;&gt;Заказать услугу()&lt;/span&gt;" style="text;html=1;strokeColor=none;fillColor=none;align=center;verticalAlign=middle;whiteSpace=wrap;rounded=0;" vertex="1" parent="H6lXii7zvQiPASxYohfn-1">
          <mxGeometry x="280.36" y="290" width="89.76" height="10" as="geometry" />
        </mxCell>
      </root>
    </mxGraphModel>
  </diagram>
</mxfile>
